<svg width="107" height="27" viewBox="0 0 107 27" fill="none" xmlns="http://www.w3.org/2000/svg">
<path d="M1.61065 0.0963176C10.1305 -0.027349 18.7949 0.0488288 27.3289 0.0411295C27.3313 2.65851 27.3021 5.27583 27.2413 7.89251L19.5087 7.89817C19.4056 12.1057 19.4486 16.4919 19.428 20.7122C19.4255 22.7894 19.4087 24.8665 19.3774 26.9434L8.02945 26.9753C8.09016 20.6099 8.10928 14.2441 8.08671 7.87849C5.59573 8.01762 2.60265 7.89895 0 7.98906C0.138823 5.94685 0.0770892 2.20756 0.0435277 0.136504L1.61065 0.0963176Z" fill="#007FC6"/>
<path d="M33.0626 0.0739141C36.6263 0.0263743 41.4074 -0.0852852 44.8907 0.119112C45.7083 2.68311 47.1282 5.58236 48.1184 8.08783C50.6201 14.4177 53.388 20.5443 55.7438 26.9328L45.0509 26.9995C44.2638 25.4587 43.4506 22.7939 42.7903 21.1079C42.0337 19.1764 41.1899 17.1181 40.5817 15.1583C39.9563 13.4288 39.4877 12.431 39.0807 10.5964C38.3658 11.9633 37.2815 15.5414 36.6873 17.1087C35.4577 20.3524 34.3035 23.7 33.0764 26.9434C29.4852 26.9187 25.9319 27.0103 22.3291 26.961C22.6372 26.3059 22.8506 25.494 23.1442 24.8617C24.1606 22.6726 24.8984 20.3249 25.8096 18.1264C27.4818 14.092 28.9616 10.067 30.6868 6.05226C31.5372 4.07359 32.1134 2.08778 33.0626 0.0739141Z" fill="#007FC6"/>
<path d="M52.1431 0.110388C60.5269 -0.109112 69.6749 0.0638662 78.1115 0.0793564C78.1185 2.68417 78.1099 5.289 78.0858 7.89371C75.4835 7.92853 72.8809 7.93328 70.2784 7.90796L70.3286 20.8841C70.3475 22.9088 70.3345 24.9336 70.2899 26.9579L58.957 27C58.8593 20.7721 58.9894 14.1795 59.0011 7.91474L50.7552 7.98335L50.7437 0.137457L52.1431 0.110388Z" fill="#007FC6"/>
<path d="M84.0516 0.0902414C87.7667 -0.0588552 91.9029 0.0511239 95.671 0.0195936C96.2934 1.3106 96.9402 3.20653 97.5037 4.58362C98.4139 6.80796 99.3628 9.05001 100.239 11.2838C102.276 16.4704 104.759 21.6603 106.467 26.9417C103.02 26.9567 99.3465 26.8932 95.9212 26.9902C95.5317 25.8982 94.9754 24.8556 94.597 23.7514C93.6044 20.8499 92.3138 17.9811 91.3334 15.0869C90.71 13.4796 90.2483 12.1754 89.7896 10.5146C88.9048 13.6379 87.4281 16.9842 86.4202 20.1152C85.6808 22.4119 84.6638 24.5596 84.017 26.9366C80.3528 26.9613 76.7776 27.0297 73.1138 26.9465C74.509 24.0372 83.362 0.475947 84.0516 0.0902414Z" fill="#007FC6"/>
</svg>
