<svg width="137" height="188" viewBox="0 0 137 188" fill="none" xmlns="http://www.w3.org/2000/svg">
<path d="M47.9966 78.5099C43.5304 80.2436 39.0055 81.3888 35.0978 84.3278C29.1331 88.823 26.812 94.9935 24.5789 101.868C24.3438 102.192 23.7268 102.192 23.5212 101.868C21.8463 97.4023 20.671 92.9364 17.7328 89.0872C12.7378 82.5349 8.00727 81.7414 0.89677 78.8625C0.338507 78.6274 -0.307901 78.4807 0.16221 77.687C0.367889 77.3345 6.65573 75.2777 7.6547 74.8369C13.7956 72.2219 18.2911 67.6677 20.9061 61.5268C21.9051 59.1468 22.5515 56.5612 23.6093 54.24L24.1381 54.0637L24.6964 54.5338C26.7825 61.1449 29.0744 67.0506 34.657 71.458C38.5649 74.5431 43.1484 75.8065 47.7321 77.5108C48.0847 77.7164 48.0553 78.1573 47.9672 78.5099H47.9966Z" fill="black"/>
<path fill-rule="evenodd" clip-rule="evenodd" d="M29.4272 0L44.2065 6.34655L132.706 46.3652C132.706 46.3652 132.999 46.5122 133.117 46.6003L134.028 47.1585C135.057 48.0106 137.113 50.5081 136.995 53.6226V99.1066C136.937 101.045 136.026 105.13 133.088 107.01C132.97 107.127 132.794 107.216 132.647 107.275L68.0355 137.097V184.138C68.0355 185.814 66.6839 187.165 65.0091 187.165H28.4575C26.7827 187.165 25.4312 185.814 25.4312 184.138V113.886C25.4312 113.71 25.4312 113.533 25.4605 113.386C25.5487 112.299 26.4008 109.772 29.0158 108.244C29.104 108.185 29.2215 108.127 29.339 108.068L96.7424 76.9816L25.725 44.9255C24.8141 44.5141 24.3735 43.5445 24.5791 42.6336V41.1351L24.9904 6.64036C24.4322 0.940204 27.723 -0.117526 29.4566 0.0587628V0H29.4272Z" fill="black"/>
</svg>
