<svg width="522" height="47" viewBox="0 0 522 47" fill="none" xmlns="http://www.w3.org/2000/svg">
<g clip-path="url(#clip0_207_3238)">
<path d="M128.274 46.2364H120.85C120.021 46.2364 119.347 46.0409 118.827 45.6447C118.308 45.2537 117.922 44.7494 117.664 44.132L114.541 35.3076H96.1258L93.0025 44.132C92.7916 44.662 92.416 45.1456 91.8859 45.583C91.3563 46.0204 90.6874 46.2364 89.8792 46.2364H82.3928L100.458 0.00515747H110.24L128.274 46.2364ZM112.216 28.6804L107.214 14.5357C106.916 13.7896 106.602 12.9201 106.273 11.9219C105.943 10.9237 105.63 9.84315 105.331 8.66998C105.032 9.85855 104.718 10.9597 104.389 11.9682C104.06 12.9767 103.746 13.8514 103.448 14.5975L98.4773 28.6804H112.21H112.216Z" fill="white"/>
<path d="M148.094 0.00515747C151.259 0.00515747 153.991 0.375624 156.301 1.12171C158.606 1.86779 160.5 2.90201 161.986 4.22952C163.473 5.55701 164.575 7.13667 165.285 8.96329C165.995 10.7899 166.355 12.776 166.355 14.9216C166.355 17.1959 165.985 19.2746 165.238 21.1681C164.492 23.0565 163.371 24.6824 161.863 26.0408C160.355 27.3992 158.457 28.4591 156.162 29.2104C153.867 29.9667 151.181 30.3424 148.099 30.3424H142.043V46.2416H132.483V0.0103H148.094V0.00515747ZM148.094 23.0102C151.088 23.0102 153.281 22.2898 154.675 20.844C156.064 19.3981 156.764 17.4223 156.764 14.9165C156.764 13.769 156.589 12.7246 156.239 11.7778C155.889 10.8311 155.359 10.0232 154.644 9.35433C153.934 8.68543 153.033 8.17086 151.953 7.81072C150.867 7.45052 149.586 7.27045 148.099 7.27045H142.043V23.0102H148.099H148.094Z" fill="white"/>
<path d="M211.974 0.00514649V46.2364H207.035C206.288 46.2364 205.666 46.1129 205.156 45.8711C204.647 45.6293 204.148 45.2074 203.659 44.6105L180.623 15.2973C180.685 16.0433 180.736 16.774 180.767 17.4943C180.798 18.2147 180.814 18.8836 180.814 19.501V46.2313H172.37V0H177.402C177.804 0 178.153 0.0154343 178.436 0.0463066C178.725 0.077179 178.982 0.15436 179.219 0.267558C179.45 0.385902 179.677 0.540265 179.887 0.730643C180.098 0.921024 180.335 1.17829 180.587 1.49731L203.782 30.9392C203.695 30.1314 203.633 29.3493 203.592 28.5981C203.551 27.8468 203.53 27.1265 203.53 26.4473V0H211.974V0.00514649Z" fill="white"/>
<path d="M262.064 46.2364H254.639C253.811 46.2364 253.137 46.0409 252.617 45.6447C252.098 45.2537 251.712 44.7494 251.454 44.132L248.331 35.3076H229.915L226.792 44.132C226.581 44.662 226.211 45.1456 225.676 45.583C225.146 46.0204 224.477 46.2364 223.669 46.2364H216.182L234.248 0.00515747H244.03L262.064 46.2364ZM246.005 28.6804L241.004 14.5357C240.706 13.7896 240.391 12.9201 240.062 11.9219C239.733 10.9237 239.419 9.84315 239.121 8.66998C238.822 9.85855 238.508 10.9597 238.179 11.9682C237.85 12.9767 237.536 13.8514 237.238 14.5975L232.267 28.6804H246H246.005Z" fill="white"/>
<path d="M290.21 31.3405C290.431 31.9014 290.652 32.4725 290.863 33.0437C291.074 32.4468 291.3 31.8808 291.532 31.3405C291.763 30.8003 292.031 30.2497 292.329 29.6991L307.781 1.63108C308.059 1.14227 308.342 0.843836 308.64 0.740926C308.939 0.632873 309.361 0.581421 309.916 0.581421H314.47V46.2364H309.052V12.6885C309.052 12.2409 309.063 11.7623 309.083 11.253C309.103 10.7435 309.134 10.2239 309.181 9.69391L293.539 38.2405C293.009 39.1975 292.263 39.6761 291.311 39.6761H290.421C289.463 39.6761 288.722 39.1975 288.192 38.2405L272.201 9.59612C272.262 10.1467 272.314 10.6921 272.345 11.2221C272.376 11.752 272.391 12.2409 272.391 12.6885V46.2364H266.973V0.581421H271.532C272.082 0.581421 272.51 0.632873 272.808 0.740926C273.106 0.84898 273.389 1.14227 273.667 1.63108L289.438 29.7352C289.736 30.2446 289.994 30.7797 290.22 31.3457L290.21 31.3405Z" fill="white"/>
<path d="M363.094 46.2365H358.314C357.764 46.2365 357.316 46.0976 356.976 45.8248C356.637 45.547 356.379 45.1971 356.209 44.7752L351.939 33.7537H331.45L327.179 44.7752C327.03 45.1559 326.778 45.4955 326.413 45.7939C326.052 46.0924 325.604 46.2416 325.075 46.2416H320.294L338.55 0.586609H344.828L363.084 46.2416L363.094 46.2365ZM333.179 29.2876H350.225L343.058 10.7127C342.59 9.56531 342.137 8.12972 341.689 6.41119C341.453 7.28076 341.226 8.08343 341.005 8.81922C340.784 9.54986 340.562 10.1931 340.352 10.7487L333.184 29.2927L333.179 29.2876Z" fill="white"/>
<path d="M375.582 27.1831V46.2364H369.433V0.581421H382.337C385.224 0.581421 387.72 0.874711 389.824 1.45614C391.929 2.04271 393.663 2.88656 395.031 3.98767C396.4 5.09392 397.414 6.42656 398.072 7.98562C398.731 9.54468 399.06 11.2941 399.06 13.2288C399.06 14.8444 398.802 16.352 398.293 17.7516C397.784 19.1511 397.043 20.4118 396.081 21.5283C395.113 22.6448 393.935 23.5916 392.546 24.3788C391.157 25.1661 389.577 25.7578 387.812 26.1643C388.579 26.6119 389.258 27.2603 389.85 28.1092L403.166 46.2364H397.686C396.559 46.2364 395.731 45.7991 395.201 44.9295L383.346 28.6186C382.986 28.1092 382.59 27.7439 382.168 27.5175C381.741 27.2963 381.108 27.1831 380.254 27.1831H375.572H375.582ZM375.582 22.6912H382.05C383.855 22.6912 385.44 22.4751 386.814 22.0377C388.182 21.6003 389.33 20.988 390.256 20.1905C391.177 19.393 391.877 18.4411 392.345 17.3399C392.814 16.2337 393.045 15.0142 393.045 13.6765C393.045 10.9597 392.15 8.90668 390.354 7.52769C388.558 6.14876 385.888 5.45411 382.342 5.45411H375.587V22.6912H375.582Z" fill="white"/>
<path d="M439.21 0.581421V5.77311H424.458V46.2364H418.279V5.77311H403.465V0.581421H439.215H439.21Z" fill="white"/>
<path d="M521.607 14.7487V21.2061L456.722 21.093C456.633 21.093 456.56 19.642 456.56 17.8565C456.561 16.0762 456.633 14.6355 456.723 14.6355L521.607 14.7487Z" fill="white"/>
<path d="M521.607 25.693V32.1504L456.722 32.0372C456.633 32.0321 456.56 30.5811 456.56 28.8008C456.561 27.0205 456.633 25.5797 456.723 25.5797L521.607 25.693Z" fill="white"/>
<path d="M0 32.0372V25.5797L64.8847 25.693C64.9746 25.693 65.0473 27.144 65.0467 28.9294C65.0467 30.7097 64.9736 32.1504 64.8841 32.1504L0 32.0372Z" fill="white"/>
<path d="M0 21.093V14.6355L64.8847 14.7487C64.9746 14.7538 65.0473 16.2049 65.0467 17.9851C65.0467 19.7655 64.9736 21.2061 64.8841 21.2061L0 21.093Z" fill="white"/>
</g>
<defs>
<clipPath id="clip0_207_3238">
<rect width="522" height="46.6168" fill="white"/>
</clipPath>
</defs>
</svg>
