<svg width="1404" height="259" viewBox="0 0 1404 259" fill="none" xmlns="http://www.w3.org/2000/svg">
<g clip-path="url(#clip0_207_3704)">
<path d="M0 36.5754H89.6802V252.461H126.03V36.5754H215.388V0.0303345H0V36.5754Z" fill="white"/>
<path d="M385.272 146.944V144.296C428.07 141.65 452.876 116.048 452.876 74.2098C452.876 27.1289 420.933 0 369.301 0H251.073V252.43H287.767V154.477H329.554C358.101 154.477 368.612 162.773 378.823 182.726L415.173 252.43H457.306L419.257 179.34C411.111 163.511 402.942 152.212 385.272 146.944ZM368.956 123.225H287.767V36.5705H368.956C399.523 36.5705 414.829 49.0151 414.829 79.885C414.829 110.755 399.545 123.225 368.956 123.225Z" fill="white"/>
<path d="M660.749 145.063C660.749 195.936 640.371 217.033 590.414 217.033C540.457 217.033 520.078 195.936 520.078 145.063V0.0275269H483.729V147.709C483.729 216.269 522.465 256.225 590.414 256.225C658.362 256.225 697.419 216.295 697.419 147.709V0.0275269H660.726V145.087L660.749 145.063Z" fill="white"/>
<path d="M925.23 0.029541L847.093 211.384H844.385L765.559 0.029541H722.073L819.235 252.46H871.234L968.395 0.029541H925.23Z" fill="white"/>
<path d="M1240.52 0.029541H1026.09L925.604 252.46H1138.95H1167.02H1179.7L1205.87 186.903H1205.94L1220.55 150.358H1220.48L1235.68 112.591V112.565L1251.39 73.4759L1264.66 37.6943H1267.37L1280.61 73.4759L1302.59 128.115V128.141L1311.54 150.358H1311.5L1326.11 186.903H1326.13L1352.29 252.46H1393.74L1292.18 0.029541H1240.52Z" fill="white"/>
</g>
<defs>
<clipPath id="clip0_207_3704">
<rect width="1404" height="258.336" fill="white"/>
</clipPath>
</defs>
</svg>
