<svg width="522" height="127" viewBox="0 0 522 127" fill="none" xmlns="http://www.w3.org/2000/svg">
<g clip-path="url(#clip0_207_3661)">
<path d="M98.6757 0V73.0584C98.6757 95.8143 83.6154 115.229 62.4901 122.731C56.4251 124.874 49.883 126.071 43.0684 126.071C25.6911 126.071 10.2219 118.507 0 106.656L28.0081 84.783C31.5517 88.9434 37.0034 91.5909 43.0684 91.5909C53.8355 91.5909 62.4901 83.3332 62.4901 73.0584V0H98.6757Z" fill="white"/>
<path d="M180.927 126.071C218.564 126.071 249.074 97.8494 249.074 63.0357C249.074 28.2221 218.564 0 180.927 0C143.291 0 112.781 28.2221 112.781 63.0357C112.781 97.8494 143.291 126.071 180.927 126.071Z" fill="white"/>
<path fill-rule="evenodd" clip-rule="evenodd" d="M385.366 63.0357C385.366 28.24 415.896 0 453.512 0C491.129 0 521.659 28.24 521.659 63.0357C521.659 97.8314 491.129 126.071 453.512 126.071C415.896 126.071 385.366 97.8314 385.366 63.0357ZM478.59 100.479C485.882 96.3186 491.811 90.3932 495.763 83.3332C496.99 81.19 496.036 78.5425 493.719 77.4079C491.402 76.2732 488.54 77.1557 487.313 79.2989C484.178 84.9091 479.408 89.6998 473.547 93.0407C467.755 96.3816 460.872 98.2727 453.512 98.2727C446.153 98.2727 439.27 96.3816 433.477 93.0407C427.685 89.6998 422.847 84.9091 419.712 79.2989C418.485 77.1557 415.623 76.3363 413.306 77.4079C410.989 78.5425 410.103 81.19 411.262 83.3332C415.214 90.3932 421.211 96.3186 428.435 100.479C435.658 104.639 444.313 107.035 453.444 107.035C462.644 107.035 471.23 104.639 478.522 100.479H478.59Z" fill="white"/>
<path d="M371.26 63.0357C371.26 97.8314 340.935 126.071 303.455 126.071H263.18V0H303.455C340.935 0 371.26 28.24 371.26 63.0357Z" fill="white"/>
</g>
<defs>
<clipPath id="clip0_207_3661">
<rect width="522" height="126.071" fill="white"/>
</clipPath>
</defs>
</svg>
