<svg width="522" height="110" viewBox="0 0 522 110" fill="none" xmlns="http://www.w3.org/2000/svg">
<g clip-path="url(#clip0_207_3647)">
<path d="M0 54.9669V109.934L45.7005 109.883L91.3755 109.807L91.452 54.8909L91.5029 -0.000106603H45.7515H0V54.9669ZM79.4215 11.8799C79.345 12.0065 77.9941 12.8171 76.4139 13.6783C67.8243 18.4151 56.6605 24.5451 54.5449 25.7103C53.2195 26.4448 48.3513 29.1299 43.7124 31.6629C25.0805 41.9217 11.903 49.1409 11.8266 49.1409C11.7756 49.1409 11.7246 40.7058 11.7246 30.3964V11.6519H45.6495C65.199 11.6519 79.498 11.7532 79.4215 11.8799ZM79.7783 54.9669C79.7783 71.2543 79.6764 84.6034 79.5744 84.6034C79.396 84.6034 72.0809 80.7532 60.917 74.7246C58.8779 73.6354 51.2569 69.5572 43.9673 65.6563C36.6776 61.7554 29.2605 57.7785 27.4764 56.8413C25.6922 55.8788 24.2139 54.9922 24.1884 54.8402C24.1629 54.7136 25.7941 53.7257 27.8077 52.6618C48.6571 41.6684 64.6383 33.2334 67.0342 31.9669C68.6399 31.1056 72.0809 29.2818 74.6807 27.8887C77.2805 26.5208 79.4725 25.3556 79.5999 25.3556C79.7019 25.3303 79.7783 38.6541 79.7783 54.9669ZM14.4773 62.1607C15.8282 62.8953 24.1119 67.4801 32.8799 72.3435C41.6479 77.1816 49.6767 81.6144 50.7217 82.197C61.1209 87.8457 79.5234 98.1552 79.5234 98.3325C79.5234 98.4338 64.3069 98.5098 45.7005 98.4845L11.8521 98.4085L11.7756 79.588C11.7501 69.2532 11.7756 60.7929 11.8775 60.7929C11.954 60.7929 13.1265 61.4008 14.4773 62.1607Z" fill="white"/>
<path d="M352.631 10.7905C347.38 12.057 344.679 17.1484 346.386 22.6198C347.788 27.1033 352.529 29.4083 358.238 28.3445C361.246 27.7872 363.489 26.1407 364.712 23.5823C365.299 22.3411 365.375 21.8345 365.375 19.6308C365.375 16.5911 364.891 15.122 363.387 13.4755C362.036 12.0317 360.66 11.2464 358.621 10.7905C356.607 10.3092 354.645 10.3092 352.631 10.7905Z" fill="white"/>
<path d="M116.736 55.7267V98.2817H125.912H135.088V86.2498V74.2179L139.625 69.1264C142.097 66.3148 144.442 63.6551 144.824 63.2245C145.666 62.2619 145.615 62.2112 147.883 65.8588C148.801 67.328 153.159 74.2179 157.569 81.1837C161.978 88.1496 166.107 94.7355 166.795 95.7994C167.458 96.8632 168.146 97.8511 168.325 98.0031C168.554 98.2057 171.893 98.2564 179.132 98.2311L189.633 98.1551L185.733 92.0758C180.508 83.9447 165.954 61.274 161.519 54.3335C159.531 51.2685 157.925 48.5835 157.925 48.3302C157.9 48.1022 164.45 40.4778 172.428 31.4095C180.432 22.3159 187.288 14.4888 187.67 14.0328L188.384 13.1716L177.73 13.1969H167.076L159.429 22.3412C141.154 44.176 135.547 50.7872 135.343 50.8632C135.19 50.9139 135.088 43.948 135.088 32.0681V13.1716H125.912H116.736V55.7267Z" fill="white"/>
<path d="M256.718 55.6509L256.794 98.1553H265.46H274.126L274.203 55.6509L274.254 13.1718H265.46H256.667L256.718 55.6509Z" fill="white"/>
<path d="M215.632 35.6143C208.852 36.4755 203.984 38.1473 200.543 40.883C196.745 43.8973 194.451 48.5581 194.044 54.1308L193.891 56.2332H202.608C211.07 56.2332 211.299 56.2079 211.299 55.7266C211.299 54.8147 212.497 51.9777 213.313 50.9392C213.823 50.3059 214.74 49.622 215.811 49.09C217.314 48.3555 217.748 48.2795 220.322 48.1781C223.636 48.0515 225.267 48.4061 227.178 49.6726C228.733 50.6859 229.778 52.4843 230.161 54.7134C230.696 57.9303 229.651 59.8048 226.822 60.6407C226.108 60.8687 222.794 61.274 219.481 61.5526C207.501 62.5658 205.411 62.8951 201.869 64.2883C197.841 65.8588 194.451 68.6704 192.769 71.8367C191.316 74.5471 190.807 76.9281 190.807 80.8037C190.807 86.655 192.132 90.1759 195.598 93.6209C199.931 97.8764 205.131 99.4975 213.67 99.2189C219.634 99.0416 223.024 98.0284 226.363 95.394C227.816 94.2541 229.88 91.8224 230.441 90.5812C230.619 90.2266 230.849 89.9226 230.951 89.9226C231.053 89.9226 231.231 90.6826 231.308 91.6198C231.537 93.6715 232.225 95.9259 233.092 97.2938L233.729 98.2817H241.63H249.506L249.149 97.2685C248.945 96.7112 248.589 95.09 248.359 93.6462C248.002 91.4678 247.9 88.0989 247.747 71.5581C247.595 53.0162 247.544 51.9524 247.059 50.2552C244.765 42.2762 239.26 37.894 229.268 36.0702C227.051 35.6649 217.748 35.361 215.632 35.6143ZM230.339 73.1792C230.084 78.1693 228.886 81.3103 226.363 83.818C223.687 86.4524 220.73 87.5163 216.652 87.3136C212.523 87.111 210.356 85.9458 209.005 83.2354C208.241 81.7156 208.19 81.4623 208.266 79.3345C208.368 77.3841 208.47 76.9535 209.082 76.0416C210.815 73.4072 213.083 72.622 220.73 71.9381C226.006 71.4821 229.37 70.8235 229.778 70.1649C229.88 70.0129 230.059 69.9876 230.212 70.0636C230.39 70.1903 230.441 71.2035 230.339 73.1792Z" fill="white"/>
<path d="M465.212 35.9689C464.193 36.2476 462.638 36.8302 461.771 37.2861C459.732 38.3247 456.444 41.6176 455.119 43.8974C454.583 44.8346 454.023 45.5945 453.921 45.5945C453.793 45.5945 453.691 43.5934 453.691 41.1617V36.7289H445.535H437.379V67.5053V98.2817L445.612 98.2311L453.819 98.1551L453.946 78.6507C454.074 60.5648 454.125 59.0449 454.558 57.7531C455.272 55.6 456.189 54.0042 457.387 52.7123C460.879 48.9888 467.149 49.0394 469.367 52.8137C470.972 55.524 470.871 54.1055 471.023 77.1309L471.151 98.1551H479.435H487.718L487.871 78.6507C487.999 57.7278 487.973 58.2344 489.375 55.448C490.777 52.7123 492.663 51.0659 495.237 50.306C500.08 48.8621 503.801 51.3952 504.642 56.7399C504.821 57.7784 504.923 65.6815 504.923 78.3214V98.2817H513.334H521.745V76.8775C521.745 63.8071 521.643 54.4855 521.49 52.991C521.082 49.3941 520.369 46.785 519.043 44.1C516.087 38.1474 510.428 35.209 502.501 35.5383C500.157 35.6397 498.959 35.817 497.404 36.3236C493.3 37.6408 489.987 40.2751 487.616 44.1L486.342 46.1518L485.424 44.3027C484.915 43.2641 484.048 41.8456 483.487 41.111C482.391 39.6419 479.919 37.7927 478.007 36.9822C474.541 35.4877 468.831 35.0317 465.212 35.9689Z" fill="white"/>
<path d="M278.842 36.957C278.842 37.0837 281.136 43.8216 283.965 51.9526C286.769 60.0837 289.521 68.0628 290.082 69.6586C290.643 71.2544 293.064 78.3216 295.511 85.3634L299.946 98.1553H310.6H321.28L322.503 94.609C323.191 92.6586 324.415 89.1123 325.23 86.7566C326.046 84.3755 327.856 79.1321 329.258 75.1046C330.659 71.0517 333.157 63.8832 334.789 59.1465C336.42 54.4097 338.331 48.8876 339.045 46.8612C339.733 44.8348 340.804 41.7445 341.416 39.946L342.537 36.729L333.463 36.7797L324.364 36.8557L324.185 37.489C324.083 37.8436 323.727 39.0848 323.37 40.2753C323.013 41.4658 320.056 51.3194 316.819 62.1861C313.582 73.0528 310.83 82.0451 310.702 82.1718C310.396 82.4758 311.084 84.6035 305.069 64.4658C302.266 54.9923 299.487 45.7467 298.952 43.9482C298.417 42.1244 297.703 39.7687 297.397 38.6795L296.811 36.729H287.839C282.894 36.729 278.842 36.8304 278.842 36.957Z" fill="white"/>
<path d="M346.946 67.4295L347.023 98.1553H355.689H364.355L364.431 67.4295L364.482 36.729H355.689H346.896L346.946 67.4295Z" fill="white"/>
<path d="M373.48 59.3237C373.556 78.6761 373.633 82.2224 373.964 83.8942C375.672 92.1012 379.699 96.7114 386.785 98.5605C388.238 98.9405 389.945 99.1431 392.673 99.2191C397.515 99.3964 399.784 98.9911 403.174 97.37C406.003 96.0275 408.577 93.6464 410.387 90.8094L411.508 89.0363L411.636 93.5957L411.763 98.1552L419.996 98.2312L428.203 98.2819V67.5054V36.729H419.563H410.897L410.82 55.6508C410.718 74.4713 410.718 74.6233 410.158 76.4977C409.036 80.1453 406.666 82.9823 403.785 84.1475C402.588 84.6288 401.848 84.7301 399.529 84.7301C397.082 84.7301 396.572 84.6541 395.578 84.1222C394.023 83.3116 393.106 82.425 392.367 81.0065C391.016 78.3468 390.99 78.2202 390.99 56.664V36.729H382.197H373.378L373.48 59.3237Z" fill="white"/>
</g>
<defs>
<clipPath id="clip0_207_3647">
<rect width="522" height="109.934" fill="white"/>
</clipPath>
</defs>
</svg>
