<svg width="522" height="127" viewBox="0 0 522 127" fill="none" xmlns="http://www.w3.org/2000/svg">
<mask id="mask0_207_3762" style="mask-type:luminance" maskUnits="userSpaceOnUse" x="0" y="10" width="517" height="104">
<path d="M516.129 10.3259H0V113.586H516.129V10.3259Z" fill="white"/>
</mask>
<g mask="url(#mask0_207_3762)">
<path d="M406.711 68.834H357.449C346.331 68.834 337.337 72.5733 337.337 77.2138V104.796C337.337 109.418 346.331 113.176 357.449 113.176H406.711C417.829 113.176 426.824 109.437 426.824 104.796V77.195C426.869 72.5733 417.829 68.834 406.711 68.834ZM405.265 82.5685H374.442V87.5103H403.774V93.4851H374.442V99.4222H405.265V105.341H358.94V76.65H405.31V82.5685H405.265Z" fill="white"/>
<path d="M196.916 68.834H179.334L134.998 113.157H161.167L168.037 105.66H208.124L214.993 113.157H241.162L196.916 68.834ZM176.397 96.4912L188.193 83.7148L199.809 96.4912H176.397Z" fill="white"/>
<path d="M327.529 68.8347L284.685 113.157H267.103L224.122 68.8347H250.607L275.962 96.5667L300.909 68.8347H327.529Z" fill="white"/>
<path d="M138.84 77.0262L115.61 108.516C113.575 111.278 107.429 113.157 100.469 113.157H100.333C93.5086 113.157 87.4529 111.334 85.3286 108.648L72.1315 92.1323C70.9115 90.5913 65.6686 90.5913 64.4481 92.1323L51.1157 108.666C48.9464 111.353 42.9354 113.157 36.111 113.157C29.1509 113.157 23.0043 111.259 20.9706 108.497L0 85.3116H16.1347C21.4225 85.3116 26.1228 86.7587 27.6143 88.8815L31.0039 94.3681C33.2637 97.562 43.7941 97.9194 47.2289 94.9131L54.8672 82.7377C56.7653 80.3328 62.1434 78.7168 68.2448 78.7168C74.301 78.7168 79.6791 80.3328 81.5772 82.7191L89.441 94.9881C92.9662 97.9568 103.451 97.5996 105.666 94.4057L116.061 74.5083L104.672 73.2495L136.399 62.5398L151.133 78.3789L138.84 77.0262Z" fill="white"/>
<path d="M88.7975 10.3259V54.6486H64.1665L24.0782 27.4988V54.6486H0.0795898V10.3259H24.5754L64.7989 37.3442V10.3259H88.7975Z" fill="white"/>
<path d="M172.961 10.3259L152.984 23.8163L153.212 23.9665L153.302 24.023L155.787 25.714L162.612 30.0353L166.724 32.6093L201.569 10.3259H172.961Z" fill="white"/>
<path d="M166.724 32.6658L155.651 39.843V39.8244L153.979 40.9328L152.849 41.6656L172.825 54.6485H201.57L166.724 32.6658Z" fill="white"/>
<path d="M237.682 19.476H206.497V10.3259H293.046V19.476H261.996V54.6486H237.682V19.476Z" fill="white"/>
<path d="M153.71 30.0353L146.84 25.714L144.354 24.023L144.263 23.9665L124.061 10.3259H95.3171L124.016 28.7012L130.162 32.6469L123.068 37.1375L95.4529 54.6486H124.242L130.796 50.327L131.79 49.6696L145.032 40.9329L146.704 39.8243L146.75 39.8431L157.822 32.6281L153.71 30.0353Z" fill="white"/>
<path opacity="0.25" d="M172.962 10.3403L152.985 23.8307L153.212 23.981L153.302 24.0372L155.788 25.7282L162.613 30.0498L166.725 32.6237L201.571 10.3403H172.962Z" fill="url(#paint0_linear_207_3762)"/>
<path opacity="0.25" d="M166.725 32.6665L155.652 39.8437V39.8249L153.98 40.9335L152.85 41.6661L172.826 54.6492H201.571L166.725 32.6665Z" fill="url(#paint1_linear_207_3762)"/>
<path opacity="0.25" d="M116.061 74.5085L138.839 77.0263L130.342 88.5628L109.959 86.1954L116.061 74.5085Z" fill="url(#paint2_linear_207_3762)"/>
<path opacity="0.25" d="M261.996 19.4763H237.681V31.7079H261.996V19.4763Z" fill="url(#paint3_linear_207_3762)"/>
<path opacity="0.25" d="M64.72 37.3448L88.7185 53.6159V22.1824L64.72 25.7711V37.0817V37.3448Z" fill="url(#paint4_linear_207_3762)"/>
<path opacity="0.25" d="M23.9986 27.7058L0 11.4348V42.8871L23.9986 39.2986V27.9877V27.7058Z" fill="url(#paint5_linear_207_3762)"/>
<path opacity="0.25" d="M167.991 105.642L176.397 96.4915H199.808L208.079 105.642H167.991Z" fill="url(#paint6_linear_207_3762)"/>
<path opacity="0.25" d="M275.962 96.5663L288.029 109.718L309.723 87.2474L291.057 79.8069L275.962 96.5663Z" fill="url(#paint7_linear_207_3762)"/>
<path d="M451.612 102.45V100.176H477.382V102.45H467.776V113.221H461.218V102.45H451.612Z" fill="white"/>
<path d="M481.627 100.176H489.808L498.45 108.941H498.818L507.458 100.176H515.641V113.221H509.203V104.73H508.945L500.827 113.157H496.443L488.322 104.698H488.061V113.221H481.627V100.176Z" fill="white"/>
</g>
<defs>
<linearGradient id="paint0_linear_207_3762" x1="154.917" y1="26.3404" x2="171.85" y2="-5.48233" gradientUnits="userSpaceOnUse">
<stop/>
<stop offset="0.0702074" stop-opacity="0.9298"/>
<stop offset="1" stop-opacity="0"/>
</linearGradient>
<linearGradient id="paint1_linear_207_3762" x1="201.465" y1="54.7063" x2="185.85" y2="23.1883" gradientUnits="userSpaceOnUse">
<stop stop-opacity="0"/>
<stop offset="0.9298" stop-opacity="0.9298"/>
<stop offset="1"/>
</linearGradient>
<linearGradient id="paint2_linear_207_3762" x1="119.959" y1="87.4073" x2="121.333" y2="75.0727" gradientUnits="userSpaceOnUse">
<stop stop-opacity="0"/>
<stop offset="1"/>
</linearGradient>
<linearGradient id="paint3_linear_207_3762" x1="249.838" y1="31.7126" x2="249.838" y2="19.4827" gradientUnits="userSpaceOnUse">
<stop stop-opacity="0"/>
<stop offset="0.9298" stop-opacity="0.9298"/>
<stop offset="1"/>
</linearGradient>
<linearGradient id="paint4_linear_207_3762" x1="76.7056" y1="53.6227" x2="76.7056" y2="22.1805" gradientUnits="userSpaceOnUse">
<stop/>
<stop offset="0.0702074" stop-opacity="0.9298"/>
<stop offset="1" stop-opacity="0"/>
</linearGradient>
<linearGradient id="paint5_linear_207_3762" x1="12.008" y1="11.437" x2="12.008" y2="42.8794" gradientUnits="userSpaceOnUse">
<stop/>
<stop offset="0.0702074" stop-opacity="0.9298"/>
<stop offset="1" stop-opacity="0"/>
</linearGradient>
<linearGradient id="paint6_linear_207_3762" x1="167.999" y1="101.072" x2="208.071" y2="101.072" gradientUnits="userSpaceOnUse">
<stop/>
<stop offset="0.0702074" stop-opacity="0.9298"/>
<stop offset="1" stop-opacity="0"/>
</linearGradient>
<linearGradient id="paint7_linear_207_3762" x1="275.309" y1="97.2674" x2="297.176" y2="74.9409" gradientUnits="userSpaceOnUse">
<stop/>
<stop offset="0.0702074" stop-opacity="0.9298"/>
<stop offset="1" stop-opacity="0"/>
</linearGradient>
</defs>
</svg>
