<svg width="1404" height="348" viewBox="0 0 1404 348" fill="none" xmlns="http://www.w3.org/2000/svg">
<g clip-path="url(#clip0_207_3666)">
<path d="M498.975 96.7582C498.42 90.8236 496.975 85.4714 494.641 80.7009C492.307 75.9299 489.085 72.1483 484.973 69.3556C480.861 66.4467 475.749 65.0503 469.637 65.1668C463.414 65.1668 458.468 66.9703 454.801 70.5774C451.133 74.1845 449.3 78.5479 449.3 83.6679C449.3 88.2054 450.522 92.0456 452.967 95.1868C455.412 98.2124 458.69 100.947 462.802 103.39C467.025 105.834 471.748 108.277 476.972 110.721C481.194 112.583 485.473 114.677 489.807 117.004C494.14 119.332 498.086 122.008 501.642 125.033C505.198 127.942 508.032 131.491 510.144 135.68C512.255 139.752 513.31 144.581 513.31 150.167C513.31 156.683 511.699 162.5 508.477 167.62C505.254 172.74 500.642 176.755 494.641 179.663C488.751 182.572 481.583 184.027 473.138 184.027C468.359 184.027 463.303 183.27 457.968 181.758C452.745 180.245 447.967 178.092 443.632 175.3L444.466 182.631H434.298L433.63 144.232H441.632C442.521 154.355 445.966 162.035 451.967 167.271C458.079 172.391 465.358 174.951 473.804 174.951C478.027 174.951 481.861 174.136 485.306 172.507C488.751 170.878 491.474 168.551 493.474 165.526C495.474 162.5 496.475 158.952 496.475 154.879C496.475 150.108 495.085 146.094 492.307 142.836C489.64 139.578 486.195 136.785 481.972 134.458C477.86 132.131 473.526 129.92 468.97 127.826C464.413 125.732 459.969 123.521 455.635 121.193C451.411 118.866 447.577 116.19 444.133 113.164C440.687 110.139 437.965 106.59 435.965 102.518C433.964 98.3288 432.964 93.4418 432.964 87.8567C432.964 84.5982 433.519 81.1661 434.631 77.5589C435.742 73.9518 437.631 70.5192 440.299 67.2612C442.965 64.0031 446.577 61.3851 451.133 59.407C455.801 57.3125 461.636 56.2653 468.636 56.2653C472.859 56.2653 477.583 56.9053 482.806 58.1853C488.14 59.4652 492.974 61.7341 497.308 64.9922L496.641 57.6616H506.643V96.7582H498.975Z" fill="white"/>
<path d="M576.511 181.234C576.289 179.372 576.121 177.744 576.01 176.347C575.899 174.951 575.732 173.496 575.51 171.983C571.732 175.94 567.676 178.965 563.342 181.059C559.008 183.038 554.507 184.027 549.839 184.027C541.838 184.027 535.782 181.99 531.67 177.918C527.669 173.729 525.669 168.551 525.669 162.385C525.669 157.032 527.169 152.378 530.169 148.421C533.17 144.465 537.115 141.265 542.005 138.821C546.894 136.262 552.228 134.4 558.007 133.236C563.786 131.956 569.454 131.317 575.01 131.317V121.019C575.01 117.295 574.677 113.863 574.01 110.721C573.343 107.464 571.954 104.845 569.842 102.867C567.842 100.773 564.675 99.7253 560.341 99.7253C557.452 99.6088 554.562 100.19 551.673 101.471C548.783 102.634 546.561 104.612 545.006 107.405C545.894 108.336 546.45 109.441 546.672 110.721C547.006 111.885 547.173 112.99 547.173 114.038C547.173 115.666 546.505 117.528 545.172 119.623C543.838 121.601 541.56 122.532 538.337 122.415C535.67 122.415 533.615 121.484 532.17 119.623C530.836 117.645 530.169 115.375 530.169 112.816C530.169 108.627 531.614 104.903 534.503 101.645C537.504 98.3869 541.56 95.8273 546.672 93.9658C551.784 92.1036 557.507 91.1732 563.842 91.1732C573.399 91.1732 580.511 93.7907 585.178 99.0272C589.957 104.264 592.347 112.525 592.347 123.812C592.347 128 592.347 132.015 592.347 135.854C592.347 139.695 592.291 143.534 592.18 147.374C592.18 151.214 592.18 155.287 592.18 159.591C592.18 161.337 592.124 163.315 592.013 165.526C591.902 167.737 591.735 170.064 591.513 172.507C593.402 172.391 595.347 172.274 597.347 172.159C599.347 172.042 601.237 171.983 603.015 171.983V181.234H576.511ZM575.01 139.345C571.454 139.578 567.787 140.102 564.008 140.916C560.341 141.73 557.007 142.952 554.007 144.582C551.007 146.21 548.561 148.305 546.672 150.865C544.894 153.424 544.005 156.508 544.005 160.115C544.227 164.072 545.45 166.98 547.672 168.842C550.006 170.704 552.728 171.635 555.84 171.635C559.73 171.635 563.175 170.878 566.175 169.366C569.176 167.737 572.12 165.526 575.01 162.733C574.899 161.453 574.844 160.174 574.844 158.893C574.844 157.497 574.844 156.043 574.844 154.53C574.844 153.483 574.844 151.563 574.844 148.77C574.955 145.861 575.01 142.719 575.01 139.345Z" fill="white"/>
<path d="M624.281 89.7764C624.281 76.5113 626.726 66.3881 631.616 59.4065C636.616 52.4251 644.451 48.9343 655.119 48.9343C658.454 48.9343 661.565 49.5161 664.455 50.6797C667.344 51.7269 669.677 53.2978 671.455 55.3922C673.233 57.3703 674.123 59.7556 674.123 62.5483C674.123 65.1081 673.4 67.2608 671.955 69.0061C670.622 70.7515 668.677 71.6824 666.121 71.7987C663.232 71.9151 661.12 71.0424 659.787 69.1807C658.565 67.3189 657.953 65.4572 657.953 63.5955C657.953 63.0137 657.953 62.3737 657.953 61.6756C658.064 60.9774 658.286 60.2793 658.62 59.5811C657.842 58.6502 656.842 58.0103 655.619 57.6612C654.508 57.3121 653.452 57.1376 652.452 57.1376C649.563 57.1376 647.34 58.0103 645.784 59.7556C644.228 61.5011 643.118 63.7118 642.45 66.388C641.784 69.0643 641.451 71.7987 641.451 74.5913V93.9652H662.788V103.041L641.617 103.565L641.784 159.416C641.784 161.511 641.728 163.664 641.617 165.875C641.506 168.085 641.339 170.296 641.117 172.507C642.895 172.39 644.728 172.332 646.618 172.332C648.618 172.216 650.396 172.099 651.952 171.983V181.234H614.446V173.903C617.78 173.903 620.114 173.088 621.447 171.46C622.78 169.831 623.559 167.562 623.781 164.653C624.114 161.744 624.281 158.369 624.281 154.529V103.739L611.112 104.088V93.9652H624.281V89.7764Z" fill="white"/>
<path d="M683.372 89.7764C683.372 76.5113 685.817 66.3881 690.706 59.4065C695.707 52.4251 703.542 48.9343 714.21 48.9343C717.544 48.9343 720.656 49.5161 723.545 50.6797C726.435 51.7269 728.768 53.2978 730.547 55.3922C732.325 57.3703 733.213 59.7556 733.213 62.5483C733.213 65.1081 732.491 67.2608 731.046 69.0061C729.713 70.7515 727.768 71.6824 725.212 71.7987C722.323 71.9151 720.212 71.0424 718.878 69.1807C717.655 67.3189 717.044 65.4572 717.044 63.5955C717.044 63.0137 717.044 62.3737 717.044 61.6756C717.155 60.9774 717.378 60.2793 717.711 59.5811C716.933 58.6502 715.933 58.0103 714.711 57.6612C713.599 57.3121 712.544 57.1376 711.543 57.1376C708.654 57.1376 706.431 58.0103 704.876 59.7556C703.32 61.5011 702.208 63.7118 701.542 66.388C700.875 69.0643 700.541 71.7987 700.541 74.5913V93.9652H721.878V103.041L700.708 103.565L700.875 159.416C700.875 161.511 700.82 163.664 700.708 165.875C700.597 168.085 700.43 170.296 700.208 172.507C701.986 172.39 703.82 172.332 705.709 172.332C707.709 172.216 709.487 172.099 711.043 171.983V181.234H673.537V173.903C676.871 173.903 679.204 173.088 680.538 171.46C681.872 169.831 682.649 167.562 682.872 164.653C683.206 161.744 683.372 158.369 683.372 154.529V103.739L670.203 104.088V93.9652H683.372V89.7764Z" fill="white"/>
<path d="M730.824 173.904C734.157 173.904 736.492 173.089 737.825 171.46C739.159 169.831 739.936 167.562 740.158 164.653C740.492 161.744 740.659 158.37 740.659 154.53V118.226C740.659 116.364 740.659 114.386 740.659 112.292C740.77 110.081 740.992 107.929 741.326 105.834C739.436 105.951 737.436 106.066 735.325 106.183C733.213 106.183 731.268 106.242 729.49 106.358V97.1071H735.158C739.825 97.1071 743.381 96.5833 745.826 95.5365C748.271 94.4889 750.05 93.3834 751.16 92.2201H757.161C757.384 93.8493 757.55 96.1181 757.661 99.0272C757.772 101.936 757.884 105.194 757.995 108.801C760.107 105.543 762.551 102.634 765.329 100.074C768.108 97.3979 771.108 95.2456 774.33 93.6164C777.663 91.9871 781.111 91.1732 784.667 91.1732C788.108 91.1732 791.055 92.1622 793.5 94.1402C796.054 96.0016 797.334 99.085 797.334 103.39C797.334 104.554 797.003 105.892 796.331 107.405C795.776 108.918 794.781 110.256 793.331 111.419C792.004 112.466 790.168 112.99 787.83 112.99C785.501 112.874 783.441 111.943 781.667 110.197C780 108.452 779.221 106.066 779.329 103.042C776.668 103.042 773.999 103.914 771.33 105.66C768.663 107.288 766.163 109.499 763.83 112.292C761.606 115.084 759.718 118.11 758.162 121.368V159.591C758.162 161.686 758.106 163.839 757.995 166.05C757.995 168.144 757.829 170.296 757.495 172.507C759.273 172.391 761.106 172.333 762.996 172.333C764.885 172.216 766.608 172.1 768.163 171.983V181.234H730.824V173.904Z" fill="white"/>
<path d="M845.738 184.027C837.846 184.027 830.734 182.165 824.4 178.442C818.067 174.718 813.006 169.54 809.234 162.908C805.562 156.159 803.726 148.421 803.726 139.695C803.726 130.269 805.562 121.949 809.234 114.736C813.006 107.405 818.067 101.645 824.4 97.4565C830.734 93.2677 837.792 91.1732 845.568 91.1732C853.46 91.1732 860.573 93.0926 866.906 96.9327C873.24 100.656 878.238 105.892 881.91 112.641C885.69 119.273 887.58 126.953 887.58 135.68C887.58 144.872 885.744 153.134 882.072 160.465C878.408 167.795 873.409 173.555 867.076 177.744C860.85 181.933 853.738 184.027 845.738 184.027ZM846.903 175.3C852.241 175.183 856.407 173.438 859.408 170.064C862.517 166.689 864.738 162.385 866.073 157.148C867.408 151.796 868.071 146.269 868.071 140.567C868.071 135.564 867.631 130.677 866.744 125.906C865.965 121.019 864.684 116.597 862.91 112.641C861.128 108.685 858.791 105.543 855.906 103.216C853.013 100.772 849.518 99.6088 845.406 99.7253C840.184 99.7253 835.902 101.412 832.57 104.787C829.345 108.162 826.954 112.525 825.403 117.877C823.953 123.113 823.236 128.699 823.236 134.632C823.236 141.498 824.069 148.014 825.735 154.181C827.401 160.348 829.955 165.409 833.403 169.366C836.959 173.322 841.457 175.3 846.903 175.3Z" fill="white"/>
<path d="M901.097 181.234V173.904C904.43 173.904 906.768 173.089 908.102 171.46C909.429 169.831 910.208 167.562 910.432 164.653C910.763 161.744 910.933 158.37 910.933 154.53L911.103 118.226C911.103 116.364 911.103 114.386 911.103 112.292C911.211 110.081 911.435 107.929 911.766 105.834C909.768 105.951 907.709 106.066 905.595 106.183C903.597 106.183 901.707 106.242 899.933 106.358V97.1071C904.931 97.1071 908.819 96.8749 911.597 96.4089C914.489 95.8273 916.657 95.187 918.1 94.4888C919.658 93.7907 920.823 93.0347 921.602 92.2201H927.604C927.712 93.2677 927.766 94.2566 927.766 95.187C927.881 96.1181 927.936 97.1071 927.936 98.1547C928.044 99.2015 928.159 100.54 928.267 102.169C930.713 100.074 933.382 98.2125 936.267 96.5833C939.16 94.9548 942.161 93.675 945.27 92.7439C948.494 91.6963 951.549 91.1732 954.442 91.1732C964.331 91.1732 971.444 94.3145 975.779 100.598C980.223 106.881 982.445 116.714 982.445 130.095V159.591C982.445 161.686 982.391 163.839 982.275 166.05C982.167 168.144 981.997 170.296 981.781 172.507C983.555 172.391 985.338 172.333 987.112 172.333C989.002 172.216 990.722 172.1 992.28 171.983V181.234H955.105V173.904C958.438 173.904 960.775 173.089 962.11 171.46C963.444 169.831 964.223 167.562 964.439 164.653C964.779 161.744 964.941 158.37 964.941 154.53V130.095C964.833 120.903 963.383 113.979 960.606 109.325C957.944 104.67 953.609 102.401 947.607 102.518C944.051 102.518 940.548 103.449 937.108 105.31C933.659 107.172 930.767 109.441 928.437 112.118C928.437 113.281 928.437 114.561 928.437 115.957C928.437 117.238 928.437 118.575 928.437 119.971V159.591C928.437 161.686 928.383 163.839 928.267 166.05C928.159 168.144 927.989 170.296 927.766 172.507C929.548 172.391 931.322 172.333 933.104 172.333C934.994 172.216 936.714 172.1 938.273 171.983V181.234H901.097Z" fill="white"/>
<path d="M1071.5 96.7582C1070.94 90.8236 1069.5 85.4714 1067.16 80.7009C1064.83 75.9299 1061.61 72.1483 1057.5 69.3556C1053.39 66.4467 1048.27 65.0503 1042.16 65.1668C1035.94 65.1668 1030.99 66.9703 1027.33 70.5774C1023.65 74.1845 1021.83 78.5479 1021.83 83.6679C1021.83 88.2054 1023.05 92.0456 1025.49 95.1868C1027.94 98.2124 1031.21 100.947 1035.33 103.39C1039.55 105.834 1044.27 108.277 1049.5 110.721C1053.72 112.583 1058 114.677 1062.33 117.004C1066.66 119.332 1070.61 122.008 1074.17 125.033C1077.72 127.942 1080.55 131.491 1082.67 135.68C1084.78 139.752 1085.83 144.581 1085.83 150.167C1085.83 156.683 1084.23 162.5 1081 167.62C1077.78 172.74 1073.16 176.755 1067.16 179.663C1061.28 182.572 1054.11 184.027 1045.66 184.027C1040.88 184.027 1035.83 183.27 1030.49 181.758C1025.27 180.245 1020.49 178.092 1016.16 175.3L1016.99 182.631H1006.82L1006.16 144.232H1014.16C1015.05 154.355 1018.49 162.035 1024.49 167.271C1030.61 172.391 1037.88 174.951 1046.33 174.951C1050.55 174.951 1054.39 174.136 1057.83 172.507C1061.28 170.878 1064 168.551 1066 165.526C1068 162.5 1069 158.952 1069 154.879C1069 150.108 1067.61 146.094 1064.83 142.836C1062.16 139.578 1058.72 136.785 1054.5 134.458C1050.38 132.131 1046.05 129.92 1041.5 127.826C1036.94 125.732 1032.49 123.521 1028.16 121.193C1023.93 118.866 1020.1 116.19 1016.66 113.164C1013.21 110.139 1010.49 106.59 1008.49 102.518C1006.49 98.3288 1005.49 93.4418 1005.49 87.8567C1005.49 84.5982 1006.04 81.1661 1007.15 77.5589C1008.26 73.9518 1010.15 70.5192 1012.82 67.2612C1015.49 64.0031 1019.1 61.3851 1023.65 59.407C1028.32 57.3125 1034.16 56.2653 1041.16 56.2653C1045.39 56.2653 1050.11 56.9053 1055.33 58.1853C1060.67 59.4652 1065.5 61.7341 1069.83 64.9922L1069.17 57.6616H1079.17V96.7582H1071.5Z" fill="white"/>
<path d="M1130.88 184.027C1128.11 184.027 1125.33 183.62 1122.55 182.805C1119.78 182.107 1117.16 180.653 1114.72 178.442C1112.39 176.115 1110.55 172.798 1109.21 168.493C1107.88 164.188 1107.22 158.487 1107.22 151.389L1107.55 103.74H1095.21V93.966C1098.21 93.8496 1101.27 92.6855 1104.39 90.4753C1107.49 88.2644 1110.22 85.2967 1112.56 81.5738C1114.88 77.8501 1116.5 73.8358 1117.38 69.5306H1125.22V93.966H1150.89V103.042L1125.22 103.391L1124.89 149.993C1124.89 154.414 1125.22 158.312 1125.89 161.687C1126.66 164.944 1127.88 167.504 1129.56 169.366C1131.33 171.111 1133.72 171.984 1136.72 171.984C1139.28 171.984 1141.89 171.17 1144.55 169.541C1147.33 167.911 1149.95 165.235 1152.39 161.512L1158.06 166.748C1155.39 170.82 1152.72 174.02 1150.05 176.348C1147.39 178.674 1144.83 180.361 1142.39 181.409C1139.95 182.572 1137.72 183.27 1135.72 183.503C1133.72 183.853 1132.11 184.027 1130.88 184.027Z" fill="white"/>
<path d="M1214.31 181.234C1214.09 179.372 1213.93 177.744 1213.81 176.347C1213.71 174.951 1213.54 173.496 1213.32 171.983C1209.54 175.94 1205.48 178.965 1201.15 181.059C1196.81 183.038 1192.31 184.027 1187.65 184.027C1179.65 184.027 1173.58 181.99 1169.47 177.918C1165.48 173.729 1163.48 168.551 1163.48 162.385C1163.48 157.032 1164.97 152.378 1167.98 148.421C1170.98 144.465 1174.92 141.265 1179.81 138.821C1184.7 136.262 1190.04 134.4 1195.82 133.236C1201.59 131.956 1207.26 131.317 1212.82 131.317V121.019C1212.82 117.295 1212.48 113.863 1211.82 110.721C1211.15 107.464 1209.76 104.845 1207.65 102.867C1205.65 100.773 1202.48 99.7253 1198.15 99.7253C1195.26 99.6088 1192.37 100.19 1189.48 101.471C1186.59 102.634 1184.37 104.612 1182.81 107.405C1183.7 108.336 1184.25 109.441 1184.48 110.721C1184.81 111.885 1184.98 112.99 1184.98 114.038C1184.98 115.666 1184.31 117.528 1182.98 119.623C1181.64 121.601 1179.37 122.532 1176.14 122.415C1173.48 122.415 1171.42 121.484 1169.97 119.623C1168.64 117.645 1167.98 115.375 1167.98 112.816C1167.98 108.627 1169.42 104.903 1172.31 101.645C1175.31 98.3869 1179.37 95.8273 1184.48 93.9658C1189.59 92.1036 1195.31 91.1732 1201.65 91.1732C1211.21 91.1732 1218.32 93.7907 1222.99 99.0272C1227.76 104.264 1230.15 112.525 1230.15 123.812C1230.15 128 1230.15 132.015 1230.15 135.854C1230.15 139.695 1230.1 143.534 1229.98 147.374C1229.98 151.214 1229.98 155.287 1229.98 159.591C1229.98 161.337 1229.93 163.315 1229.82 165.526C1229.7 167.737 1229.54 170.064 1229.32 172.507C1231.21 172.391 1233.15 172.274 1235.15 172.159C1237.16 172.042 1239.04 171.983 1240.82 171.983V181.234H1214.31ZM1212.82 139.345C1209.26 139.578 1205.59 140.102 1201.82 140.916C1198.15 141.73 1194.81 142.952 1191.81 144.582C1188.81 146.21 1186.37 148.305 1184.48 150.865C1182.7 153.424 1181.81 156.508 1181.81 160.115C1182.03 164.072 1183.26 166.98 1185.48 168.842C1187.81 170.704 1190.53 171.635 1193.65 171.635C1197.54 171.635 1200.98 170.878 1203.98 169.366C1206.98 167.737 1209.93 165.526 1212.82 162.733C1212.7 161.453 1212.65 160.174 1212.65 158.893C1212.65 157.497 1212.65 156.043 1212.65 154.53C1212.65 153.483 1212.65 151.563 1212.65 148.77C1212.76 145.861 1212.82 142.719 1212.82 139.345Z" fill="white"/>
<path d="M1264.29 228.533C1260.62 228.533 1257.46 227.486 1254.79 225.392C1252.24 223.413 1250.96 220.504 1250.96 216.665C1250.96 214.221 1251.68 212.011 1253.12 210.032C1254.68 208.054 1256.68 207.065 1259.12 207.065C1261.79 206.949 1263.68 207.821 1264.79 209.683C1266.01 211.545 1266.62 213.465 1266.62 215.443C1266.62 215.792 1266.62 216.141 1266.62 216.49C1266.62 216.839 1266.57 217.246 1266.46 217.712C1266.79 217.945 1267.29 218.003 1267.96 217.887C1269.18 217.77 1270.51 217.072 1271.96 215.792C1273.4 214.512 1274.74 212.709 1275.96 210.381C1277.29 207.822 1278.8 204.272 1280.46 199.734C1282.13 195.197 1283.97 189.96 1285.96 184.026L1259.79 126.778C1256.79 120.262 1254.68 115.2 1253.45 111.593C1252.34 107.869 1251.62 104.961 1251.29 102.867L1243.29 103.215V93.9651H1280.13V101.121H1279.79C1275.24 101.586 1272.74 103.39 1272.29 106.532C1271.96 109.673 1273.02 113.978 1275.46 119.447L1293.79 161.686C1295.91 155.751 1298.02 149.294 1300.13 142.312C1302.36 135.33 1304.63 128.174 1306.96 120.844C1307.74 118.633 1308.52 116.306 1309.3 113.862C1310.19 111.302 1311.08 108.975 1311.97 106.88C1312.96 104.786 1313.91 103.332 1314.8 102.517L1303.97 103.215V93.9651H1331.3V101.121C1327.41 102.517 1324.36 105.077 1322.14 108.8C1320.02 112.524 1317.97 117.237 1315.96 122.938L1295.13 184.375C1291.91 194.033 1288.91 202.12 1286.12 208.636C1283.35 215.268 1280.24 220.213 1276.79 223.472C1273.46 226.846 1269.29 228.533 1264.29 228.533Z" fill="white"/>
<path d="M1374.66 184.027C1369.44 184.027 1364.61 183.27 1360.16 181.758C1355.72 180.362 1352.16 178.674 1349.5 176.696L1349.99 182.456H1341.16L1340.33 152.435H1347.33C1347.55 156.741 1348.83 160.639 1351.17 164.13C1353.5 167.62 1356.5 170.355 1360.16 172.333C1363.94 174.311 1368 175.3 1372.33 175.3C1374.89 175.3 1377.39 174.893 1379.83 174.078C1382.28 173.148 1384.34 171.809 1386 170.064C1387.67 168.202 1388.5 165.933 1388.5 163.257C1388.5 160.348 1387.62 157.963 1385.83 156.101C1384.17 154.123 1381.84 152.378 1378.84 150.865C1375.94 149.352 1372.61 147.839 1368.83 146.327C1365.5 144.93 1362.11 143.476 1358.66 141.963C1355.33 140.451 1352.21 138.647 1349.33 136.553C1346.44 134.458 1344.16 131.899 1342.49 128.873C1340.83 125.732 1340 121.892 1340 117.353C1340 114.677 1340.5 111.827 1341.49 108.801C1342.5 105.66 1344.11 102.809 1346.33 100.249C1348.55 97.573 1351.55 95.42 1355.33 93.7907C1359.11 92.0457 1363.78 91.1732 1369.33 91.1732C1372.33 91.1732 1375.67 91.6963 1379.33 92.7439C1383.11 93.7907 1386.61 95.5943 1389.84 98.1547L1389.67 92.0457H1398.5V122.764H1391.33C1391 118.692 1389.95 114.91 1388.17 111.419C1386.5 107.929 1384.11 105.077 1381 102.867C1377.89 100.656 1374.11 99.551 1369.66 99.551C1365.33 99.551 1361.77 100.714 1359 103.042C1356.33 105.253 1355 108.045 1355 111.419C1355 114.794 1356 117.528 1358 119.623C1360.11 121.717 1362.83 123.521 1366.16 125.034C1369.5 126.546 1373.11 128.058 1377 129.571C1381.67 131.549 1386.06 133.702 1390.17 136.029C1394.28 138.356 1397.61 141.265 1400.17 144.756C1402.73 148.247 1404.01 152.668 1404.01 158.021C1404.01 163.839 1402.56 168.726 1399.67 172.682C1396.9 176.522 1393.28 179.372 1388.83 181.234C1384.39 183.096 1379.67 184.027 1374.66 184.027Z" fill="white"/>
<g opacity="0.8">
<path d="M449.023 318.339L435.71 273.126H442.765L452.209 307.742H452.664L461.995 273.126H469.163L478.38 307.624H478.836L488.279 273.126H495.335L482.022 318.339H475.422L465.864 283.605H465.181L455.623 318.339H449.023Z" fill="white"/>
<path d="M522.938 291.14V318.339H516.225V258.054H522.938V280.19H523.507C524.531 277.855 526.067 276 528.115 274.627C530.182 273.233 532.932 272.536 536.365 272.536C539.342 272.536 541.949 273.155 544.187 274.391C546.425 275.608 548.161 277.482 549.394 280.013C550.645 282.526 551.271 285.724 551.271 289.61V318.339H544.558V290.08C544.558 286.489 543.657 283.713 541.855 281.75C540.073 279.768 537.598 278.777 534.43 278.777C532.23 278.777 530.258 279.258 528.513 280.22C526.788 281.181 525.422 282.584 524.417 284.429C523.431 286.273 522.938 288.51 522.938 291.14Z" fill="white"/>
<path d="M593.885 319.279C589.675 319.279 586.043 318.317 582.99 316.394C579.956 314.451 577.613 311.743 575.964 308.27C574.332 304.777 573.517 300.714 573.517 296.083C573.517 291.452 574.332 287.37 575.964 283.838C577.613 280.286 579.908 277.519 582.848 275.536C585.806 273.535 589.258 272.534 593.202 272.534C595.478 272.534 597.725 272.927 599.944 273.712C602.163 274.496 604.182 275.772 606.003 277.538C607.824 279.285 609.275 281.601 610.355 284.485C611.436 287.37 611.977 290.922 611.977 295.141V298.084H578.296V292.08H605.15C605.15 289.529 604.657 287.252 603.67 285.251C602.704 283.249 601.319 281.669 599.518 280.511C597.735 279.353 595.63 278.775 593.202 278.775C590.528 278.775 588.215 279.461 586.261 280.835C584.327 282.189 582.838 283.956 581.795 286.133C580.752 288.312 580.23 290.647 580.23 293.14V297.142C580.23 300.558 580.799 303.452 581.938 305.826C583.094 308.181 584.696 309.977 586.744 311.213C588.792 312.43 591.173 313.039 593.885 313.039C595.648 313.039 597.241 312.783 598.664 312.273C600.105 311.743 601.347 310.958 602.39 309.918C603.433 308.858 604.239 307.544 604.808 305.974L611.294 307.858C610.611 310.134 609.464 312.135 607.852 313.862C606.24 315.57 604.249 316.904 601.878 317.865C599.508 318.807 596.843 319.279 593.885 319.279Z" fill="white"/>
<path d="M634.206 318.338V273.125H640.692V279.954H641.147C641.943 277.716 643.385 275.901 645.471 274.508C647.557 273.115 649.909 272.418 652.525 272.418C653.018 272.418 653.635 272.427 654.375 272.448C655.114 272.467 655.674 272.497 656.053 272.535V279.6C655.826 279.542 655.304 279.453 654.489 279.336C653.692 279.198 652.848 279.13 651.957 279.13C649.832 279.13 647.936 279.591 646.268 280.513C644.618 281.415 643.308 282.671 642.342 284.28C641.394 285.87 640.919 287.686 640.919 289.727V318.338H634.206Z" fill="white"/>
<path d="M693.025 319.279C688.814 319.279 685.182 318.317 682.129 316.394C679.095 314.451 676.753 311.743 675.103 308.27C673.472 304.777 672.657 300.714 672.657 296.083C672.657 291.452 673.472 287.37 675.103 283.838C676.753 280.286 679.047 277.519 681.987 275.536C684.946 273.535 688.397 272.534 692.342 272.534C694.618 272.534 696.865 272.927 699.084 273.712C701.302 274.496 703.322 275.772 705.142 277.538C706.963 279.285 708.414 281.601 709.495 284.485C710.576 287.37 711.116 290.922 711.116 295.141V298.084H677.436V292.08H704.289C704.289 289.529 703.796 287.252 702.81 285.251C701.843 283.249 700.458 281.669 698.657 280.511C696.874 279.353 694.769 278.775 692.342 278.775C689.668 278.775 687.354 279.461 685.401 280.835C683.466 282.189 681.978 283.956 680.935 286.133C679.891 288.312 679.37 290.647 679.37 293.14V297.142C679.37 300.558 679.939 303.452 681.077 305.826C682.233 308.181 683.836 309.977 685.884 311.213C687.933 312.43 690.312 313.039 693.025 313.039C694.788 313.039 696.381 312.783 697.804 312.273C699.245 311.743 700.487 310.958 701.53 309.918C702.573 308.858 703.379 307.544 703.948 305.974L710.434 307.858C709.751 310.134 708.604 312.135 706.992 313.862C705.38 315.57 703.389 316.904 701.018 317.865C698.648 318.807 695.983 319.279 693.025 319.279Z" fill="white"/>
<path d="M787.347 273.125V279.012H763.791V273.125H787.347ZM770.845 318.339V266.885C770.845 264.294 771.432 262.136 772.613 260.408C773.785 258.682 775.313 257.387 777.187 256.524C779.069 255.66 781.052 255.228 783.135 255.228C784.786 255.228 786.128 255.366 787.177 255.64C788.219 255.915 788.998 256.17 789.507 256.405L787.571 262.41C787.231 262.292 786.753 262.146 786.151 261.969C785.565 261.792 784.786 261.704 783.814 261.704C781.6 261.704 779.995 262.283 779.008 263.441C778.043 264.599 777.557 266.296 777.557 268.533V318.339H770.845Z" fill="white"/>
<path d="M820.366 319.397C817.605 319.397 815.09 318.857 812.83 317.777C810.577 316.678 808.78 315.099 807.453 313.039C806.126 310.958 805.462 308.446 805.462 305.502C805.462 302.912 805.956 300.812 806.943 299.203C807.931 297.575 809.25 296.299 810.901 295.377C812.544 294.454 814.365 293.767 816.363 293.316C818.368 292.845 820.39 292.472 822.418 292.198C825.072 291.844 827.224 291.579 828.875 291.403C830.542 291.206 831.76 290.882 832.516 290.431C833.296 289.98 833.681 289.195 833.681 288.077V287.841C833.681 284.937 832.918 282.68 831.382 281.071C829.863 279.461 827.556 278.657 824.463 278.657C821.261 278.657 818.746 279.383 816.926 280.835C815.105 282.287 813.825 283.838 813.084 285.486L806.712 283.131C807.854 280.384 809.374 278.245 811.264 276.714C813.184 275.164 815.267 274.084 817.528 273.476C819.803 272.848 822.04 272.534 824.239 272.534C825.643 272.534 827.255 272.711 829.076 273.064C830.912 273.398 832.686 274.095 834.391 275.154C836.119 276.214 837.554 277.813 838.688 279.952C839.83 282.091 840.4 284.956 840.4 288.547V318.337H833.681V312.214H833.342C832.887 313.195 832.131 314.245 831.066 315.364C830.002 316.482 828.59 317.434 826.831 318.219C825.064 319.004 822.912 319.397 820.366 319.397ZM821.392 313.156C824.046 313.156 826.283 312.617 828.104 311.537C829.948 310.457 831.328 309.064 832.262 307.357C833.211 305.65 833.681 303.854 833.681 301.97V295.612C833.396 295.965 832.771 296.289 831.807 296.583C830.858 296.858 829.755 297.103 828.505 297.319C827.271 297.516 826.067 297.693 824.895 297.849C823.738 297.986 822.796 298.104 822.079 298.202C820.336 298.438 818.7 298.82 817.18 299.35C815.684 299.861 814.473 300.636 813.539 301.676C812.629 302.696 812.174 304.09 812.174 305.856C812.174 308.27 813.038 310.095 814.766 311.331C816.509 312.548 818.723 313.156 821.392 313.156Z" fill="white"/>
<path d="M864.671 318.337V273.123H871.151V280.187H871.722C872.633 277.773 874.106 275.9 876.135 274.565C878.164 273.211 880.601 272.534 883.44 272.534C886.325 272.534 888.725 273.211 890.638 274.565C892.574 275.9 894.078 277.773 895.166 280.187H895.621C896.74 277.852 898.414 275.998 900.651 274.625C902.888 273.231 905.573 272.534 908.705 272.534C912.608 272.534 915.809 273.8 918.293 276.332C920.777 278.843 922.019 282.758 922.019 288.077V318.337H915.3V288.077C915.3 284.74 914.421 282.356 912.654 280.923C910.895 279.491 908.82 278.775 906.429 278.775C903.359 278.775 900.975 279.736 899.285 281.659C897.596 283.563 896.755 285.977 896.755 288.901V318.337H889.928V287.37C889.928 284.799 889.126 282.729 887.513 281.159C885.901 279.569 883.818 278.775 881.28 278.775C879.537 278.775 877.901 279.255 876.389 280.217C874.893 281.179 873.674 282.513 872.748 284.22C871.838 285.908 871.383 287.861 871.383 290.078V318.337H864.671Z" fill="white"/>
<path d="M946.309 318.339V273.126H953.028V318.339H946.309ZM949.727 265.589C948.415 265.589 947.289 265.128 946.34 264.206C945.414 263.284 944.944 262.175 944.944 260.88C944.944 259.585 945.414 258.476 946.34 257.554C947.289 256.631 948.415 256.17 949.727 256.17C951.038 256.17 952.157 256.631 953.082 257.554C954.031 258.476 954.502 259.585 954.502 260.88C954.502 262.175 954.031 263.284 953.082 264.206C952.157 265.128 951.038 265.589 949.727 265.589Z" fill="white"/>
<path d="M984.044 258.054V318.339H977.333V258.054H984.044Z" fill="white"/>
<path d="M1008.36 318.339V273.126H1015.07V318.339H1008.36ZM1011.78 265.589C1010.47 265.589 1009.34 265.128 1008.39 264.206C1007.46 263.284 1007 262.175 1007 260.88C1007 259.585 1007.46 258.476 1008.39 257.554C1009.34 256.631 1010.47 256.17 1011.78 256.17C1013.08 256.17 1014.2 256.631 1015.13 257.554C1016.08 258.476 1016.55 259.585 1016.55 260.88C1016.55 262.175 1016.08 263.284 1015.13 264.206C1014.2 265.128 1013.08 265.589 1011.78 265.589Z" fill="white"/>
<path d="M1057.7 319.279C1053.49 319.279 1049.86 318.317 1046.8 316.394C1043.77 314.451 1041.43 311.743 1039.78 308.27C1038.15 304.777 1037.33 300.714 1037.33 296.083C1037.33 291.452 1038.15 287.37 1039.78 283.838C1041.43 280.286 1043.73 277.519 1046.66 275.536C1049.62 273.535 1053.07 272.534 1057.02 272.534C1059.29 272.534 1061.54 272.927 1063.76 273.712C1065.98 274.496 1068 275.772 1069.82 277.538C1071.64 279.285 1073.09 281.601 1074.17 284.485C1075.25 287.37 1075.79 290.922 1075.79 295.141V298.084H1042.11V292.08H1068.97C1068.97 289.529 1068.47 287.252 1067.49 285.251C1066.52 283.249 1065.13 281.669 1063.33 280.511C1061.55 279.353 1059.45 278.775 1057.02 278.775C1054.34 278.775 1052.03 279.461 1050.07 280.835C1048.15 282.189 1046.66 283.956 1045.61 286.133C1044.57 288.312 1044.05 290.647 1044.05 293.14V297.142C1044.05 300.558 1044.61 303.452 1045.75 305.826C1046.91 308.181 1048.52 309.977 1050.56 311.213C1052.61 312.43 1054.99 313.039 1057.7 313.039C1059.46 313.039 1061.06 312.783 1062.48 312.273C1063.92 311.743 1065.16 310.958 1066.2 309.918C1067.25 308.858 1068.06 307.544 1068.63 305.974L1075.11 307.858C1074.43 310.134 1073.28 312.135 1071.67 313.862C1070.05 315.57 1068.06 316.904 1065.7 317.865C1063.33 318.807 1060.66 319.279 1057.7 319.279Z" fill="white"/>
<path d="M1128.97 283.249L1122.95 285.015C1122.56 283.975 1122.01 282.964 1121.27 281.983C1120.55 280.983 1119.56 280.158 1118.31 279.511C1117.06 278.863 1115.46 278.54 1113.5 278.54C1110.83 278.54 1108.6 279.177 1106.82 280.453C1105.05 281.709 1104.17 283.308 1104.17 285.251C1104.17 286.977 1104.78 288.341 1105.99 289.343C1107.2 290.343 1109.1 291.177 1111.68 291.844L1118.17 293.493C1122.08 294.474 1124.99 295.975 1126.9 297.996C1128.81 299.998 1129.78 302.579 1129.78 305.738C1129.78 308.328 1129.05 310.644 1127.61 312.685C1126.19 314.726 1124.2 316.335 1121.64 317.513C1119.08 318.69 1116.1 319.279 1112.7 319.279C1108.25 319.279 1104.56 318.278 1101.64 316.276C1098.72 314.274 1096.87 311.351 1096.1 307.504L1102.47 305.856C1103.07 308.289 1104.22 310.114 1105.91 311.331C1107.61 312.548 1109.84 313.156 1112.59 313.156C1115.72 313.156 1118.2 312.469 1120.05 311.095C1121.9 309.702 1122.83 308.034 1122.83 306.091C1122.83 304.521 1122.3 303.207 1121.24 302.147C1120.18 301.068 1118.54 300.263 1116.35 299.733L1109.06 297.967C1105.06 296.986 1102.12 295.465 1100.25 293.404C1098.39 291.324 1097.46 288.724 1097.46 285.603C1097.46 283.052 1098.15 280.796 1099.54 278.833C1100.94 276.871 1102.85 275.33 1105.25 274.212C1107.68 273.093 1110.43 272.534 1113.5 272.534C1117.83 272.534 1121.22 273.515 1123.69 275.478C1126.17 277.44 1127.93 280.031 1128.97 283.249Z" fill="white"/>
<path d="M1187.35 318.339V258.054H1194.07V280.308H1194.63C1195.12 279.523 1195.81 278.522 1196.68 277.305C1197.57 276.069 1198.84 274.97 1200.49 274.008C1202.16 273.027 1204.42 272.536 1207.26 272.536C1210.94 272.536 1214.18 273.488 1216.99 275.392C1219.8 277.295 1221.99 279.994 1223.57 283.487C1225.14 286.98 1225.93 291.101 1225.93 295.85C1225.93 300.638 1225.14 304.789 1223.57 308.301C1221.99 311.794 1219.81 314.503 1217.02 316.426C1214.23 318.329 1211.01 319.281 1207.37 319.281C1204.57 319.281 1202.32 318.801 1200.63 317.839C1198.95 316.857 1197.65 315.749 1196.74 314.512C1195.82 313.256 1195.12 312.216 1194.63 311.393H1193.83V318.339H1187.35ZM1193.95 295.733C1193.95 299.147 1194.44 302.159 1195.4 304.769C1196.36 307.36 1197.78 309.391 1199.64 310.863C1201.49 312.314 1203.77 313.041 1206.46 313.041C1209.27 313.041 1211.62 312.275 1213.49 310.745C1215.39 309.195 1216.81 307.114 1217.76 304.504C1218.73 301.875 1219.21 298.951 1219.21 295.733C1219.21 292.553 1218.74 289.688 1217.79 287.137C1216.86 284.566 1215.44 282.535 1213.55 281.044C1211.67 279.533 1209.31 278.777 1206.46 278.777C1203.73 278.777 1201.44 279.493 1199.58 280.926C1197.72 282.339 1196.32 284.321 1195.37 286.872C1194.42 289.404 1193.95 292.357 1193.95 295.733Z" fill="white"/>
<path d="M1265.97 319.279C1262.02 319.279 1258.56 318.307 1255.58 316.364C1252.62 314.422 1250.31 311.704 1248.64 308.211C1246.99 304.718 1246.16 300.636 1246.16 295.965C1246.16 291.256 1246.99 287.144 1248.64 283.632C1250.31 280.119 1252.62 277.391 1255.58 275.448C1258.56 273.506 1262.02 272.534 1265.97 272.534C1269.91 272.534 1273.36 273.506 1276.32 275.448C1279.3 277.391 1281.61 280.119 1283.26 283.632C1284.93 287.144 1285.76 291.256 1285.76 295.965C1285.76 300.636 1284.93 304.718 1283.26 308.211C1281.61 311.704 1279.3 314.422 1276.32 316.364C1273.36 318.307 1269.91 319.279 1265.97 319.279ZM1265.97 313.039C1268.96 313.039 1271.43 312.243 1273.36 310.654C1275.29 309.064 1276.73 306.974 1277.65 304.384C1278.59 301.793 1279.05 298.988 1279.05 295.965C1279.05 292.943 1278.59 290.127 1277.65 287.517C1276.73 284.907 1275.29 282.798 1273.36 281.189C1271.43 279.579 1268.96 278.775 1265.97 278.775C1262.97 278.775 1260.51 279.579 1258.57 281.189C1256.63 282.798 1255.2 284.907 1254.27 287.517C1253.35 290.127 1252.88 292.943 1252.88 295.965C1252.88 298.988 1253.35 301.793 1254.27 304.384C1255.2 306.974 1256.63 309.064 1258.57 310.654C1260.51 312.243 1262.97 313.039 1265.97 313.039Z" fill="white"/>
<path d="M1314.74 291.138V318.337H1308.03V273.123H1314.51V280.187H1315.09C1316.1 277.892 1317.66 276.047 1319.74 274.654C1321.84 273.241 1324.53 272.534 1327.83 272.534C1330.78 272.534 1333.38 273.162 1335.59 274.418C1337.81 275.654 1339.54 277.538 1340.77 280.07C1342 282.582 1342.62 285.761 1342.62 289.607V318.337H1335.91V290.078C1335.91 286.526 1335.01 283.759 1333.23 281.777C1331.45 279.775 1329 278.775 1325.89 278.775C1323.75 278.775 1321.84 279.255 1320.15 280.217C1318.48 281.179 1317.16 282.582 1316.19 284.426C1315.22 286.271 1314.74 288.508 1314.74 291.138Z" fill="white"/>
<path d="M1383.39 319.281C1379.75 319.281 1376.54 318.329 1373.75 316.426C1370.96 314.503 1368.78 311.794 1367.21 308.301C1365.64 304.789 1364.85 300.638 1364.85 295.85C1364.85 291.101 1365.64 286.98 1367.21 283.487C1368.78 279.994 1370.97 277.295 1373.78 275.392C1376.58 273.488 1379.83 272.536 1383.51 272.536C1386.35 272.536 1388.6 273.027 1390.25 274.008C1391.92 274.97 1393.19 276.069 1394.06 277.305C1394.95 278.522 1395.65 279.523 1396.14 280.308H1396.71V258.054H1403.42V318.339H1396.93V311.393H1396.14C1395.65 312.216 1394.94 313.256 1394.03 314.512C1393.12 315.749 1391.83 316.857 1390.14 317.839C1388.45 318.801 1386.2 319.281 1383.39 319.281ZM1384.31 313.041C1387 313.041 1389.27 312.314 1391.13 310.863C1392.99 309.391 1394.4 307.36 1395.37 304.769C1396.34 302.159 1396.82 299.147 1396.82 295.733C1396.82 292.357 1396.35 289.404 1395.4 286.872C1394.45 284.321 1393.05 282.339 1391.19 280.926C1389.33 279.493 1387.04 278.777 1384.31 278.777C1381.46 278.777 1379.09 279.533 1377.19 281.044C1375.32 282.535 1373.9 284.566 1372.95 287.137C1372.02 289.688 1371.56 292.553 1371.56 295.733C1371.56 298.951 1372.03 301.875 1372.98 304.504C1373.95 307.114 1375.37 309.195 1377.25 310.745C1379.14 312.275 1381.5 313.041 1384.31 313.041Z" fill="white"/>
</g>
<path fill-rule="evenodd" clip-rule="evenodd" d="M106.5 132.864L113.671 152.939C113.671 152.939 193.953 103.538 222.647 86.0217C260.501 53.546 227.627 1.79168 191.771 2.17893C183.095 1.93124 174.518 4.06184 166.993 8.33456C159.467 12.6072 153.286 18.8551 149.135 26.3856C135.392 48.2309 148.136 79.537 160.288 85.6113C161.005 85.1669 163.903 83.1211 167.202 80.7929C171.227 77.9517 175.847 74.6908 177.82 73.4095C159.488 62.392 155.53 26.173 190.172 22.6347C217.466 21.6476 225.436 57.669 210.095 70.2584C205.114 73.2348 106.5 132.864 106.5 132.864ZM201.735 111.031L221.058 99.8156C221.058 99.8156 299.149 157.28 310.31 163.188C314.146 165.591 318.545 166.977 323.082 167.21C327.619 167.442 332.139 166.514 336.206 164.515C340.274 162.516 343.75 159.513 346.299 155.799C348.848 152.084 350.382 147.781 350.755 143.309C352.346 106.308 301.348 107.295 296.567 136.225C292.682 133.567 290.341 131.796 288.001 130.025C285.66 128.254 283.32 126.482 279.435 123.826C289.796 92.5341 328.442 88.2063 348.365 98.6314C356.423 102.816 363.027 109.289 367.323 117.219C371.62 125.148 373.412 134.167 372.469 143.111C368.087 183.651 327.443 199.399 301.548 182.474C288.196 173.415 201.735 111.031 201.735 111.031ZM277.641 181.084L260.508 168.487C260.508 168.487 223.053 272.398 219.056 283.446C214.291 305.686 228.233 342.065 267.48 341.305C278.773 340.45 289.464 335.935 297.893 328.462C306.323 320.989 312.018 310.976 314.096 299.977C315.045 287.378 311.106 274.897 303.077 265.064C295.049 255.232 283.533 248.787 270.869 247.037C270.229 248.642 269.686 249.959 269.171 251.207L269.167 251.217C267.601 255.013 266.293 258.185 263.298 266.916C302.744 267.705 302.544 319.27 265.689 321.434C261.482 321.43 257.332 320.475 253.557 318.644C249.781 316.812 246.479 314.152 243.903 310.867C241.328 307.582 239.546 303.758 238.695 299.689C237.845 295.62 237.947 291.411 238.994 287.387C240.386 282.831 277.641 181.084 277.641 181.084ZM211.091 271.791L218.861 249.771C218.861 249.771 109.494 249.968 93.5758 249.968C53.7304 251.738 42.7775 288.738 48.9495 310.781C72.8537 375.322 157.325 338.116 140.992 284.805C134.021 284.608 122.66 284.411 119.47 284.411C125.842 302.52 116.481 322.786 95.1665 323.378C88.5207 323.383 82.1155 320.92 77.2231 316.477C72.3308 312.032 69.3087 305.934 68.757 299.391C68.2053 292.849 70.1644 286.34 74.2452 281.158C78.3262 275.976 84.23 272.5 90.7856 271.419C97.9414 271.616 211.091 271.791 211.091 271.791ZM129.017 240.327H106.105C106.105 240.327 73.6377 137.395 71.4318 130.91C68.7913 125.739 64.5327 121.547 59.2885 118.957C54.0442 116.367 48.0942 115.517 42.322 116.533C36.5499 117.55 31.2635 120.379 27.2483 124.599C23.233 128.82 20.703 134.207 20.034 139.961C19.7885 145.283 21.167 150.553 23.991 155.091C26.8149 159.628 30.9538 163.223 35.8709 165.408C40.788 167.593 46.2563 168.268 51.5667 167.346C56.877 166.424 61.7842 163.946 65.6517 160.235C66.3418 162.714 66.9424 164.913 67.5896 167.281C68.6291 171.086 69.7888 175.331 71.6316 181.883C33.2005 202.346 5.89903 176.766 0.918355 149.605C-3.46279 125.201 8.28946 109.453 26.4213 98.238C32.5813 95.2904 39.3127 93.692 46.1557 93.55C52.9985 93.4089 59.7917 94.7288 66.071 97.4187C72.3504 100.109 77.9675 104.107 82.5398 109.139C87.1113 114.171 90.5295 120.118 92.5614 126.575C94.3519 132.672 129.017 240.327 129.017 240.327Z" fill="white"/>
</g>
<defs>
<clipPath id="clip0_207_3666">
<rect width="1404" height="347.143" fill="white"/>
</clipPath>
</defs>
</svg>
