<svg width="522" height="196" viewBox="0 0 522 196" fill="none" xmlns="http://www.w3.org/2000/svg">
<path d="M105.573 108.967C113.011 99.9628 116.665 89.1313 116.665 76.4728C116.665 68.2513 115.23 60.2908 112.359 52.4608C110.532 47.3713 108.183 43.3258 105.312 40.1938C102.441 37.0618 98.6563 34.3213 93.9583 32.2333C86.5198 28.8403 77.9068 27.1438 67.8583 27.1438C52.7203 27.1438 41.1058 30.5368 33.1453 37.4533C23.7493 45.2833 19.0513 58.7248 19.0513 77.5168C19.0513 88.2178 21.0088 97.4833 24.9238 105.183C30.1438 115.231 38.2348 121.626 49.3273 124.105C53.6338 125.019 57.2878 125.671 60.2893 125.932C63.4213 126.193 69.0328 126.324 77.2543 126.324L85.3453 126.454H122.407V108.967H105.573ZM88.9993 99.4408C85.0843 106.488 78.1678 110.011 68.1193 110.011C57.4183 110.011 50.2408 106.227 46.4563 98.5273C43.7158 92.6548 42.2803 85.0858 42.2803 75.6898C42.2803 64.8583 44.3683 56.7673 48.5443 51.5473C52.7203 46.3273 59.2453 43.5868 67.8583 43.5868C77.1238 43.5868 83.7793 46.8493 87.9553 53.3743C91.6093 59.2468 93.4363 66.6853 93.4363 75.9508C93.4363 86.2603 92.0008 94.0903 88.9993 99.4408Z" fill="white"/>
<path fill-rule="evenodd" clip-rule="evenodd" d="M153.988 32.4949V88.3489C153.988 92.7859 154.379 96.3094 155.032 98.7889C155.815 101.268 156.989 103.356 158.816 105.053C162.862 108.837 168.343 110.795 175.259 110.795C179.696 110.795 183.611 110.012 187.004 108.576C190.397 107.01 192.616 105.053 193.921 102.443C195.226 99.8329 195.878 95.1349 195.878 88.4794V32.4949H215.845V87.4354C215.845 94.7434 215.062 100.616 213.626 105.314C212.06 110.012 209.711 113.796 206.449 116.667C199.01 123.062 188.57 126.324 174.868 126.324C160.382 126.324 149.812 123.192 143.156 116.798C139.633 113.535 137.284 109.881 135.979 105.705C134.674 101.66 134.021 96.0484 134.021 88.7404V32.4949H153.988Z" fill="white"/>
<path fill-rule="evenodd" clip-rule="evenodd" d="M303.022 32.494V49.0675H276.922C270.136 49.0675 265.177 49.5895 262.045 50.503C258.913 51.4165 256.433 53.2435 254.345 55.984C252.91 57.811 251.996 59.7685 251.474 61.5955C250.952 63.4225 250.561 66.685 250.169 71.2525H303.022V87.826H250.169C250.822 96.0475 253.171 101.659 257.216 104.791C261.262 107.923 268.048 109.62 277.835 109.62H303.022V126.193H276.922C269.875 126.193 263.611 125.802 258.26 124.888C249.778 123.583 243.122 119.799 238.163 113.796C231.116 105.183 227.462 93.4375 227.462 78.691C227.462 62.3785 232.421 49.5895 242.47 40.585C245.863 37.453 249.517 35.365 253.432 34.1905C257.347 33.016 262.567 32.3635 269.092 32.3635H303.022V32.494Z" fill="white"/>
<path fill-rule="evenodd" clip-rule="evenodd" d="M319.072 126.454V109.881H362.006C368.923 109.881 373.49 109.228 375.839 107.793C379.102 105.835 380.798 102.834 380.798 98.9186C380.798 94.3511 378.841 90.9581 375.056 88.8701C372.838 87.6956 369.314 87.0431 364.486 87.0431H346.999C336.298 87.0431 328.729 85.0856 324.031 81.3011C321.16 78.8216 318.811 75.8201 317.114 72.1661C315.418 68.5121 314.635 64.5971 314.635 60.4211C314.635 53.7656 316.592 47.7626 320.377 42.2816C324.161 37.0616 330.164 33.9296 338.516 33.1466C341.387 32.8856 345.433 32.7551 351.044 32.7551H397.633V49.3286H355.612C349.348 49.3286 345.172 49.7201 343.084 50.1116C338.908 51.1556 336.689 54.4181 336.689 59.7686C336.689 64.3361 338.386 67.3376 342.04 68.9036C344.389 69.9476 348.434 70.4696 353.915 70.4696H368.923C376.622 70.4696 382.364 71.1221 386.279 72.4271C392.935 74.6456 397.502 78.5606 399.982 84.1721C401.939 88.7396 402.983 93.5681 402.983 98.7881C402.983 104.53 401.678 109.62 399.068 114.057C395.414 120.451 389.803 124.236 382.495 125.541C378.971 126.063 373.49 126.454 366.443 126.454H319.072Z" fill="white"/>
<path fill-rule="evenodd" clip-rule="evenodd" d="M419.038 126.454V109.881H461.972C468.889 109.881 473.456 109.228 475.805 107.793C479.068 105.835 480.764 102.834 480.764 98.9186C480.764 94.3511 478.807 90.9581 475.022 88.8701C472.804 87.6956 469.28 87.0431 464.452 87.0431H446.965C436.264 87.0431 428.695 85.0856 423.997 81.3011C421.126 78.8216 418.777 75.8201 417.08 72.1661C415.384 68.5121 414.601 64.5971 414.601 60.4211C414.601 53.7656 416.558 47.7626 420.343 42.2816C424.127 37.0616 430.13 33.9296 438.482 33.1466C441.353 32.8856 445.529 32.7551 451.01 32.7551H497.599V49.3286H455.578C449.314 49.3286 445.138 49.7201 443.05 50.1116C438.874 51.1556 436.655 54.4181 436.655 59.7686C436.655 64.3361 438.352 67.3376 442.006 68.9036C444.355 69.9476 448.4 70.4696 453.881 70.4696H468.889C476.588 70.4696 482.33 71.1221 486.245 72.4271C492.901 74.6456 497.468 78.5606 499.948 84.1721C501.905 88.7396 502.949 93.5681 502.949 98.7881C502.949 104.53 501.644 109.62 499.034 114.057C495.38 120.451 489.769 124.236 482.461 125.541C478.937 126.063 473.456 126.454 466.279 126.454H419.038Z" fill="white"/>
<path d="M84.0407 168.345L78.9512 147.204H83.2577L86.5202 161.689L90.4352 147.204H95.5247L99.1787 161.95L102.441 147.204H106.748L101.528 168.345H97.0907L92.9147 152.685L88.6082 168.345H84.0407Z" fill="white"/>
<path d="M112.749 168.345V147.204H117.056V168.345H112.749Z" fill="white"/>
<path d="M125.28 168.345V147.204H129.456L138.069 161.298V147.204H141.984V168.345H137.678L129.195 154.642V168.345H125.28Z" fill="white"/>
<path d="M150.597 168.345V147.204H154.773L163.386 161.298V147.204H167.301V168.345H163.125L154.642 154.512V168.345H150.597Z" fill="white"/>
<path d="M175.783 168.345V147.204H180.09V168.345H175.783Z" fill="white"/>
<path d="M188.309 168.345V147.204H192.485L201.098 161.298V147.204H205.013V168.345H200.707L192.224 154.512V168.345H188.309Z" fill="white"/>
<path d="M223.416 160.645V157.122H232.551V165.474C230.202 167.693 227.2 168.737 223.546 168.737C220.023 168.737 217.413 167.693 215.586 165.605C213.759 163.517 212.845 160.907 212.845 157.644C212.845 153.99 213.889 151.38 215.847 149.553C217.935 147.726 220.414 146.812 223.285 146.812C228.375 146.812 231.376 148.901 232.29 153.077L228.114 153.86C227.461 151.641 225.895 150.467 223.416 150.467C219.37 150.467 217.282 152.815 217.282 157.513C217.282 159.862 217.804 161.69 218.848 162.995C219.892 164.3 221.328 164.952 223.285 164.952C225.112 164.952 226.678 164.3 228.244 163.125V160.385H223.416V160.645Z" fill="white"/>
<path d="M257.607 168.345V150.858H251.343V147.335H268.178V150.858H261.914V168.345H257.607Z" fill="white"/>
<path d="M274.051 157.905C274.051 154.512 274.965 151.772 276.792 149.814C278.619 147.857 281.098 146.812 284.361 146.812C288.015 146.812 290.625 147.856 292.191 150.075C293.757 152.294 294.54 154.773 294.54 157.775C294.54 161.168 293.626 163.778 291.799 165.735C289.972 167.693 287.493 168.606 284.361 168.606C281.098 168.606 278.619 167.693 276.792 165.735C274.965 163.908 274.051 161.298 274.051 157.905ZM278.488 157.775C278.488 159.993 279.01 161.69 280.054 162.995C281.098 164.3 282.534 164.952 284.361 164.952C286.318 164.952 287.754 164.3 288.667 162.864C289.581 161.429 290.103 159.732 290.103 157.644C290.103 152.816 288.145 150.467 284.361 150.467C280.446 150.597 278.488 152.946 278.488 157.775Z" fill="white"/>
<path d="M311.894 160.645V157.122H321.029V165.474C318.68 167.693 315.679 168.737 312.025 168.737C308.501 168.737 305.891 167.693 304.064 165.605C302.237 163.517 301.323 160.907 301.323 157.644C301.323 153.99 302.367 151.38 304.325 149.553C306.413 147.726 308.892 146.812 311.763 146.812C316.853 146.812 319.854 148.901 320.768 153.077L316.592 153.86C315.94 151.641 314.373 150.467 311.894 150.467C307.848 150.467 305.76 152.815 305.76 157.513C305.76 159.862 306.282 161.69 307.326 162.995C308.37 164.3 309.806 164.952 311.763 164.952C313.59 164.952 315.156 164.3 316.722 163.125V160.385H311.894V160.645Z" fill="white"/>
<path d="M328.991 168.345V147.204H344.651V150.727H333.298V155.425H343.868V158.949H333.298V164.691H345.173V168.214H328.991V168.345Z" fill="white"/>
<path d="M357.571 168.345V150.858H351.307V147.335H368.011V150.858H361.747V168.345H357.571Z" fill="white"/>
<path d="M374.925 168.345V147.204H379.231V155.556H387.583V147.204H391.89V168.345H387.583V159.21H379.231V168.475H374.925V168.345Z" fill="white"/>
<path d="M400.244 168.345V147.204H415.904V150.727H404.551V155.425H415.121V158.949H404.551V164.691H416.426V168.214H400.244V168.345Z" fill="white"/>
<path d="M423.995 168.345V147.204H432.999C435.74 147.204 437.828 147.595 439.263 148.509C440.699 149.292 441.351 150.858 441.351 153.207C441.351 156.6 439.524 158.557 435.74 159.079C437.175 159.862 438.741 161.559 440.438 164.299L443.048 168.475H437.958L433.391 161.689C432.999 161.037 432.477 160.515 431.825 160.254C431.303 159.993 430.389 159.732 429.215 159.732H428.301V168.606H423.995V168.345ZM428.301 156.208H431.433C433.521 156.208 435.087 156.078 435.74 155.686C436.523 155.295 436.914 154.642 436.914 153.468C436.914 152.424 436.653 151.771 436.001 151.38C435.348 150.988 433.913 150.858 431.694 150.858H428.432V156.208H428.301Z" fill="white"/>
</svg>
