<svg width="1404" height="204" viewBox="0 0 1404 204" fill="none" xmlns="http://www.w3.org/2000/svg">
<g clip-path="url(#clip0_207_3713)">
<mask id="mask0_207_3713" style="mask-type:luminance" maskUnits="userSpaceOnUse" x="0" y="6" width="1404" height="198">
<path d="M1404 6.43042H0V203.183H1404V6.43042Z" fill="white"/>
</mask>
<g mask="url(#mask0_207_3713)">
<path d="M27.845 174.533C9.18883 155.625 0 132.375 0 104.809C0 77.2421 9.18883 53.9915 27.845 35.0848C46.5012 16.178 70.2807 6.71069 98.9055 6.71069C133.489 6.71069 164.313 24.5594 180.519 52.655L158.632 65.3524C147.829 44.5521 124.857 31.0194 98.9055 31.0194C77.0192 31.0194 59.1706 38.0364 45.3874 52.098C31.604 66.1598 24.8377 83.73 24.8377 104.809C24.8377 125.887 31.604 143.179 45.3874 157.241C59.1706 171.302 77.0192 178.32 98.9055 178.32C124.857 178.32 147.829 164.815 158.632 144.265L180.519 156.684C172.695 170.745 161.334 182.078 146.743 190.46C132.152 198.84 116.197 202.878 98.9055 202.878C70.2526 202.878 46.4732 193.411 27.8172 174.505L27.845 174.533Z" fill="white"/>
<path d="M234.039 175.616H315.652V199.397H208.895V10.2175H234.039V175.616Z" fill="white"/>
<path d="M340.798 10.2175H365.943V199.397H340.798V10.2175Z" fill="white"/>
<path d="M424.301 174.531C405.644 155.624 396.457 132.373 396.457 104.807C396.457 77.2403 405.644 53.9896 424.301 35.0829C442.957 16.1762 466.737 6.70886 495.389 6.70886C529.973 6.70886 560.798 24.5576 577.002 52.6532L555.117 65.3505C544.313 44.5503 521.341 31.0175 495.389 31.0175C473.504 31.0175 455.655 38.0346 441.872 52.0962C428.089 66.158 421.321 83.7282 421.321 104.807C421.321 125.885 428.089 143.177 441.872 157.24C455.655 171.301 473.504 178.318 495.389 178.318C521.341 178.318 544.313 164.813 555.117 144.263L577.002 156.682C569.178 170.743 557.818 182.076 543.226 190.458C528.636 198.839 512.681 202.877 495.389 202.877C466.737 202.877 442.957 193.409 424.301 174.503V174.531Z" fill="white"/>
<path d="M742.958 199.397H712.161L630.549 108.594V199.397H605.406V10.2175H630.549V95.6179L709.437 10.2175H740.234L656.723 102.106L742.93 199.397H742.958Z" fill="white"/>
<path d="M833.204 10.2175C851.309 10.2175 866.732 16.4269 879.15 28.5952C891.569 40.7635 897.809 55.8833 897.809 73.7316C897.809 91.5807 891.597 106.7 879.15 118.869C866.732 131.037 851.309 137.246 833.204 137.246H799.958V199.397H762.674V10.2175H833.204ZM833.204 102.384C849.161 102.384 860.772 89.9654 860.772 73.7316C860.772 57.4984 849.161 45.0794 833.204 45.0794H799.958V102.384H833.204Z" fill="white"/>
<path d="M1010.25 203.183C982.954 203.183 959.704 193.715 940.518 174.809C921.613 155.623 912.15 132.373 912.15 104.806C912.15 77.2402 921.613 53.9895 940.518 35.0828C959.43 16.1761 982.954 6.4303 1010.25 6.4303C1037.53 6.4303 1060.78 15.8976 1079.97 35.0828C1099.16 53.9895 1108.62 77.2402 1108.62 104.806C1108.62 132.373 1099.16 155.623 1079.97 174.809C1060.78 193.715 1037.53 203.183 1010.25 203.183ZM1010.25 166.707C1027.54 166.707 1042.13 161.026 1053.76 149.414C1065.38 137.803 1071.34 122.934 1071.34 104.834C1071.34 86.7355 1065.38 71.8657 1053.76 60.2268C1042.15 48.6154 1027.54 42.6565 1010.25 42.6565C992.951 42.6565 978.363 48.6154 966.724 60.2268C955.113 71.8383 949.153 86.7074 949.153 104.834C949.153 122.961 955.113 137.803 966.724 149.414C978.335 161.026 992.951 166.707 1010.25 166.707Z" fill="white"/>
<path d="M1118.34 156.431L1150.22 137.775C1157.52 156.96 1172.11 166.707 1193.75 166.707C1215.38 166.707 1224.02 158.325 1224.02 146.714C1224.02 139.947 1221.03 134.824 1215.1 131.315C1209.17 127.528 1198.62 123.491 1183.22 119.147C1166.18 114.024 1155.93 109.958 1144.04 101.576C1132.43 92.9166 1126.19 79.9689 1126.19 62.6494C1126.19 45.3298 1132.12 31.8528 1144.29 21.8286C1156.46 11.5538 1171.33 6.4303 1188.34 6.4303C1218.89 6.4303 1242.95 22.1071 1255.89 48.8661L1224.54 66.9653C1216.97 50.7595 1204.8 42.6288 1188.31 42.6288C1172.92 42.6288 1163.45 50.4533 1163.45 61.5356C1163.45 67.4944 1165.87 72.3396 1170.75 76.1261C1175.87 79.6347 1185.34 83.7 1199.4 88.0159L1212.38 92.3318C1215.35 93.1398 1219.39 94.7544 1224.54 96.9264C1229.67 98.8197 1233.73 100.714 1236.43 102.607C1242.11 106.116 1250.74 112.881 1254.28 119.369C1258.34 125.857 1261.3 135.325 1261.3 146.129C1261.3 163.699 1254.81 177.482 1242.11 187.757C1229.41 198.031 1212.93 203.154 1192.66 203.154C1155.09 203.154 1128.87 185.307 1118.34 156.403V156.431Z" fill="white"/>
<path d="M1404 10.2175V45.887H1352.93V199.397H1315.64V45.887H1264.83V10.2175H1404.03H1404Z" fill="white"/>
</g>
</g>
<defs>
<clipPath id="clip0_207_3713">
<rect width="1404" height="203.58" fill="white"/>
</clipPath>
</defs>
</svg>
