<svg width="522" height="126" viewBox="0 0 522 126" fill="none" xmlns="http://www.w3.org/2000/svg">
<path d="M71.3485 53.6461L46.8007 28.7931C46.5511 28.5403 46.1466 28.5403 45.897 28.7931L1.25558 73.9896C1.00595 74.2423 1.00596 74.6522 1.25558 74.9048L25.8034 99.7579C26.053 100.011 26.4577 100.011 26.7074 99.7579L71.3485 54.5613C71.5982 54.3086 71.5982 53.8988 71.3485 53.6461Z" fill="white"/>
<path d="M119.891 99.6313L144.189 75.0313C144.508 74.7086 144.508 74.1857 144.189 73.863L99.7977 28.9197C99.4791 28.5971 98.9625 28.5971 98.6436 28.9197L74.3461 53.5199C74.0272 53.8422 74.0272 54.3655 74.3461 54.6881L118.737 99.6313C119.056 99.954 119.573 99.954 119.891 99.6313Z" fill="white"/>
<path d="M97.1515 98.0487L73.1772 73.7763C72.9748 73.5713 72.6463 73.5713 72.4435 73.7763L48.4692 98.0487C48.2668 98.2539 48.2668 98.5863 48.4692 98.7916L72.4435 123.064C72.646 123.269 72.9748 123.269 73.1772 123.064L97.1515 98.7916C97.354 98.5863 97.354 98.2539 97.1515 98.0487Z" fill="white"/>
<path d="M97.1515 26.9646L73.1772 2.69218C72.9748 2.48705 72.6463 2.48705 72.4435 2.69219L48.4692 26.9646C48.2668 27.1697 48.2668 27.5023 48.4692 27.7074L72.4435 51.9796C72.646 52.1849 72.9748 52.1849 73.1772 51.98L97.1515 27.7074C97.354 27.5023 97.354 27.1697 97.1515 26.9646Z" fill="white"/>
<path d="M206.495 81.6465H182.239L176.567 96.903H166.009L189.742 35.1722H194.367C197.508 35.1722 199.689 36.7302 200.911 39.8461L222.724 96.903H212.079L206.495 81.6465ZM185.118 73.0042H203.616L194.454 47.9594H194.367L185.118 73.0042ZM240.288 97.6085C234.936 97.6085 230.632 96.0506 227.374 92.9346C224.175 89.8186 222.576 85.7031 222.576 80.5884V69.4769C222.576 66.067 223.303 63.0687 224.757 60.4818C226.211 57.8363 228.276 55.8078 230.952 54.397C233.628 52.9269 236.711 52.1923 240.201 52.1923H247.181C252.184 52.1923 256.197 53.662 259.222 56.6017C262.305 59.4823 263.847 63.3038 263.847 68.0657H253.987C253.987 65.9493 253.347 64.2445 252.067 62.951C250.846 61.5987 249.217 60.9229 247.181 60.9229H240.288C238.019 60.9229 236.158 61.7753 234.704 63.48C233.308 65.1852 232.61 67.3899 232.61 70.0942V79.9711C232.61 82.6166 233.308 84.7624 234.704 86.4087C236.158 88.055 238.048 88.8779 240.375 88.8779H247.268C249.421 88.8779 251.136 88.0844 252.416 86.497C253.754 84.9096 254.423 82.852 254.423 80.3239H264.283C264.283 85.4975 262.712 89.6715 259.571 92.8463C256.488 96.0211 252.387 97.6085 247.268 97.6085H240.288ZM284.941 97.6085C279.589 97.6085 275.285 96.0506 272.027 92.9346C268.828 89.8186 267.228 85.7031 267.228 80.5884V69.4769C267.228 66.067 267.956 63.0687 269.41 60.4818C270.864 57.8363 272.929 55.8078 275.605 54.397C278.28 52.9269 281.363 52.1923 284.853 52.1923H291.834C296.836 52.1923 300.85 53.662 303.875 56.6017C306.958 59.4823 308.499 63.3038 308.499 68.0657H298.64C298.64 65.9493 298 64.2445 296.72 62.951C295.498 61.5987 293.87 60.9229 291.834 60.9229H284.941C282.672 60.9229 280.811 61.7753 279.356 63.48C277.961 65.1852 277.262 67.3899 277.262 70.0942V79.9711C277.262 82.6166 277.961 84.7624 279.356 86.4087C280.811 88.055 282.701 88.8779 285.028 88.8779H291.921C294.073 88.8779 295.789 88.0844 297.069 86.497C298.407 84.9096 299.076 82.852 299.076 80.3239H308.935C308.935 85.4975 307.365 89.6715 304.224 92.8463C301.141 96.0211 297.04 97.6085 291.921 97.6085H284.941ZM320.17 47.9594C318.193 47.9594 316.593 47.3712 315.371 46.1954C314.208 44.9608 313.626 43.4028 313.626 41.5215C313.626 39.6405 314.208 38.1116 315.371 36.9358C316.593 35.7013 318.193 35.084 320.17 35.084C322.148 35.084 323.747 35.7013 324.969 36.9358C326.191 38.1116 326.801 39.6405 326.801 41.5215C326.801 43.4028 326.191 44.9608 324.969 46.1954C323.747 47.3712 322.148 47.9594 320.17 47.9594ZM315.197 52.8979H325.231V96.903H315.197V52.8979ZM350.56 97.6085C345.209 97.6085 340.904 96.0506 337.647 92.9346C334.389 89.7598 332.761 85.5858 332.761 80.4119V69.4769C332.761 66.067 333.487 63.0687 334.942 60.4818C336.454 57.8363 338.548 55.8078 341.224 54.397C343.958 52.9269 347.099 52.1923 350.647 52.1923H358.325C361.873 52.1923 364.987 52.9269 367.661 54.397C370.395 55.8078 372.49 57.8363 373.942 60.4818C375.455 63.0687 376.212 66.067 376.212 69.4769V80.4119C376.212 85.5858 374.553 89.7598 371.24 92.9346C367.98 96.0506 363.62 97.6085 358.151 97.6085H350.56ZM358.062 88.8779C360.505 88.8779 362.455 88.055 363.911 86.4087C365.424 84.7039 366.18 82.4992 366.18 79.7946V70.0059C366.18 67.3016 365.452 65.1263 363.996 63.48C362.544 61.7753 360.594 60.9229 358.151 60.9229H350.822C348.379 60.9229 346.43 61.7753 344.976 63.48C343.522 65.1263 342.795 67.3016 342.795 70.0059V79.7946C342.795 82.4992 343.522 84.7039 344.976 86.4087C346.43 88.055 348.321 88.8779 350.647 88.8779H358.062ZM397.322 97.6085C393.601 97.6085 390.313 96.7267 387.465 94.9627C384.613 93.1402 382.401 90.6122 380.831 87.3788C379.262 84.0866 378.477 80.3239 378.477 76.0907H388.509C388.509 79.8534 389.326 82.8811 390.952 85.1741C392.582 87.4083 394.705 88.5252 397.322 88.5252H404.304C406.978 88.5252 409.101 87.3494 410.674 84.9979C412.301 82.5871 413.117 79.3833 413.117 75.3855V35.1722H423.323V75.7383C423.323 80.1473 422.538 83.9983 420.969 87.2905C419.456 90.5827 417.276 93.1402 414.424 94.9627C411.633 96.7267 408.373 97.6085 404.652 97.6085H397.322ZM446.682 97.6085C441.33 97.6085 437.026 96.0506 433.77 92.9346C430.51 89.7598 428.884 85.5858 428.884 80.4119V69.4769C428.884 66.067 429.608 63.0687 431.064 60.4818C432.577 57.8363 434.672 55.8078 437.346 54.397C440.08 52.9269 443.223 52.1923 446.77 52.1923H454.448C457.995 52.1923 461.109 52.9269 463.783 54.397C466.518 55.8078 468.613 57.8363 470.065 60.4818C471.578 63.0687 472.334 66.067 472.334 69.4769V80.4119C472.334 85.5858 470.676 89.7598 467.363 92.9346C464.103 96.0506 459.742 97.6085 454.274 97.6085H446.682ZM454.185 88.8779C456.628 88.8779 458.578 88.055 460.033 86.4087C461.546 84.7039 462.303 82.4992 462.303 79.7946V70.0059C462.303 67.3016 461.575 65.1263 460.119 63.48C458.666 61.7753 456.717 60.9229 454.274 60.9229H446.944C444.501 60.9229 442.552 61.7753 441.099 63.48C439.643 65.1263 438.916 67.3016 438.916 70.0059V79.7946C438.916 82.4992 439.643 84.7039 441.099 86.4087C442.552 88.055 444.444 88.8779 446.77 88.8779H454.185ZM497.983 97.6085C496.122 97.6085 494.201 97.0207 492.223 95.8445C490.302 94.6099 488.761 93.0814 487.6 91.2589V96.903H478.264V35.1722H488.296V56.9542C489.461 55.4845 490.945 54.3381 492.745 53.5152C494.549 52.633 496.353 52.1923 498.157 52.1923H504.265C507.464 52.1923 510.312 52.9269 512.816 54.397C515.316 55.8078 517.265 57.8069 518.661 60.3935C520.056 62.9805 520.756 65.9493 520.756 69.3003V79.7946C520.756 83.3222 520.056 86.4381 518.661 89.1425C517.265 91.8468 515.287 93.9341 512.727 95.4038C510.227 96.8735 507.347 97.6085 504.091 97.6085H497.983ZM503.043 88.7017C505.313 88.7017 507.173 87.849 508.626 86.1442C510.081 84.3806 510.809 82.0876 510.809 79.2655V69.9176C510.809 67.2722 510.11 65.1557 508.714 63.5683C507.319 61.9221 505.515 61.0991 503.306 61.0991H497.72C495.16 61.0991 493.008 62.0398 491.265 63.9211C489.518 65.7436 488.53 68.154 488.296 71.1522V79.7946C488.587 82.3815 489.578 84.5274 491.265 86.2325C493.008 87.8784 495.015 88.7017 497.284 88.7017H503.043Z" fill="white"/>
</svg>
