<svg width="522" height="105" viewBox="0 0 522 105" fill="none" xmlns="http://www.w3.org/2000/svg">
<path d="M43.3095 0.81565C29.4439 3.7519 18.7592 10.3585 10.8476 20.7169C1.63105 32.9513 -1.87614 48.3666 1.22324 63.211C4.40417 78.3 15.6598 92.7366 29.4439 99.4247C33.2773 101.219 37.0292 102.769 37.7632 102.769C38.9867 102.769 39.1498 100.893 39.1498 82.2966C39.1498 59.296 39.4761 57.6647 44.7776 54.2391C50.5686 50.4872 56.6042 50.895 61.4979 55.381C65.8207 59.296 66.0654 61.0088 66.0654 82.786C66.0654 99.3432 66.2286 102.769 67.2073 102.769C67.8598 102.769 71.6932 101.056 75.8529 99.0169C86.3745 93.7154 94.0414 86.0485 99.0167 75.69C101.056 71.5304 103.095 65.821 103.666 63.0479C105.052 55.6257 104.237 42.331 102.035 35.8875C96.5698 20.0644 82.7857 6.76971 66.8811 2.12065C61.4979 0.4894 48.2848 -0.244663 43.3095 0.81565ZM66.3101 12.4791C91.1867 21.5325 101.953 49.4269 89.4739 72.9169C87.027 77.566 78.3814 87.2719 76.7501 87.2719C76.3423 87.2719 75.8529 80.8285 75.6898 72.7538C75.4451 59.8669 75.282 57.991 73.6507 55.0547C71.2854 50.6503 66.6364 46.0828 62.0689 43.8807C56.9304 41.3522 48.5295 41.3522 42.9832 43.7991L39.1498 45.5935L39.3129 28.71L39.5576 11.8266L44.0436 10.8478C50.3239 9.46128 59.7851 10.1138 66.3101 12.4791ZM29.3623 52.6078C29.3623 76.7504 29.1176 87.2719 28.4651 87.2719C27.9757 87.2719 25.4473 85.1513 22.7557 82.6229C8.4823 69.0019 5.95386 46.1644 16.8832 29.3625C20.1457 24.3872 26.5076 17.9438 28.2204 17.9438C29.1992 17.9438 29.3623 23.8978 29.3623 52.6078Z" fill="white"/>
<path d="M340.931 51.3845V84.0095H342.97H345.009V72.917C345.009 63.1295 345.172 61.4167 346.64 59.0514C350.147 53.4236 359.282 51.4661 363.279 55.4626C364.829 57.0123 364.992 58.3173 365.237 70.5517L365.481 84.0095H367.52H369.478V70.6333C369.478 58.1542 369.396 57.1755 367.602 54.5655C366.623 53.0973 364.829 51.3845 363.768 50.8136C359.038 48.4483 351.616 50.1611 346.885 54.8101L344.193 57.4201V38.0898C344.193 19.3304 344.112 18.7595 342.562 18.7595C340.931 18.7595 340.931 19.3304 340.931 51.3845Z" fill="white"/>
<path d="M146.567 22.3482C137.596 26.1 132.702 30.586 128.216 39.3132C126.177 43.2282 126.014 44.4516 126.014 52.6079C126.014 60.8457 126.177 61.9875 128.379 66.4735C131.56 72.9169 137.351 78.6263 144.202 81.8072C149.177 84.1725 150.401 84.4172 157.415 84.4172C164.43 84.4172 165.653 84.1725 170.628 81.8072C178.214 78.2185 182.944 73.651 186.615 66.2288C189.388 60.4379 189.632 59.5407 189.632 52.6894C189.632 46.0013 189.388 44.6963 187.022 39.721C183.76 32.9513 177.398 26.4263 170.791 23.1638C166.876 21.2879 164.756 20.7985 158.72 20.6354C152.277 20.3907 150.646 20.6354 146.567 22.3482ZM166.387 34.501C179.519 40.9444 180.497 61.0088 168.181 69.6544C165.408 71.6119 163.614 72.1829 159.536 72.4275C152.929 72.8354 149.096 71.6119 144.691 67.5338C133.354 57.0938 137.84 36.9479 152.521 32.8697C157.089 31.5647 161.575 32.1357 166.387 34.501Z" fill="white"/>
<path d="M211.654 47.3062C209.126 48.6112 206.842 49.7531 206.761 49.7531C206.598 49.7531 206.353 48.9375 206.19 47.8772C205.945 46.2459 205.456 46.0828 200.888 45.8381L195.75 45.5934V73.8141V101.953H201.459H207.169V91.2684V80.6653L209.779 82.5412C213.367 85.0697 222.747 85.6406 227.967 83.6016C232.942 81.7256 237.754 76.1794 238.978 70.7962C243.382 52.6894 227.478 38.9869 211.654 47.3062ZM221.442 55.7887C222.992 56.4412 225.031 58.2356 225.928 59.7037C231.637 69.0834 220.789 79.9312 211.41 74.2219C208.229 72.2644 207.169 69.8175 207.169 64.2712C207.169 60.7641 207.495 59.8669 209.615 57.9094C213.123 54.6469 216.956 53.9128 221.442 55.7887Z" fill="white"/>
<path d="M259.042 46.1644C254.067 47.714 247.624 53.9128 246.4 58.3987C245.911 60.1931 245.503 63.6187 245.503 66.0656C245.503 80.9915 263.039 89.9634 278.78 83.1937C281.146 82.215 283.022 81.2362 283.022 80.9915C283.022 80.8284 282.043 78.8709 280.901 76.5872C279.351 73.4062 278.536 72.5906 277.475 72.9984C273.56 74.6297 269.972 75.2006 265.975 74.8744C262.305 74.5481 261.163 74.0587 259.532 72.1012L257.493 69.7359L272.092 69.3281L286.692 68.9203L286.937 66.2287C287.344 62.3137 285.061 55.4625 282.288 52.1184C277.394 46.2459 267.117 43.5544 259.042 46.1644ZM270.95 55.6256C272.826 56.2781 275.681 60.6825 274.784 61.4981C274.621 61.6612 270.706 62.069 266.138 62.3953C257.003 62.9662 256.432 62.7215 259.124 58.725C260.674 56.4412 262.223 55.2994 264.67 54.5653C266.383 54.0759 267.199 54.239 270.95 55.6256Z" fill="white"/>
<path d="M310.916 46.5723C309.04 47.5511 306.756 49.1823 305.859 50.3242L304.309 52.2817L303.738 49.427L303.249 46.4908H298.029H292.809V65.2501V84.0095H298.518H304.228V75.2008C304.228 65.0055 305.125 61.2536 308.224 57.6648C310.019 55.7073 311.242 55.1364 313.608 55.1364C318.501 55.1364 318.909 56.3598 318.909 71.1226V84.0095H325.026H331.143V68.5942C331.143 53.9945 331.062 53.0973 329.268 50.4873C325.597 44.9411 317.686 43.2283 310.916 46.5723Z" fill="white"/>
<path d="M387.014 52.1183C381.712 55.2177 379.102 59.2142 378.613 64.8421C378.042 71.3671 379.021 74.7111 382.365 78.463C389.787 86.7008 401.695 86.9455 409.199 79.0339C412.625 75.3636 413.522 72.7536 413.522 66.4733C413.522 62.0689 413.195 60.8455 410.912 57.4199C405.529 49.5899 395.333 47.3061 387.014 52.1183ZM401.858 54.3205C408.057 57.3383 411.075 64.4343 409.036 71.5302C405.121 85.2327 384.975 84.3355 382.528 70.3068C380.57 58.6433 391.581 49.5083 401.858 54.3205Z" fill="white"/>
<path d="M466.048 50.8949C462.622 52.4445 460.828 55.1361 460.828 58.9695C460.828 63.1292 463.764 65.9839 470.208 68.4308C476.407 70.7961 477.956 72.1827 477.956 75.5267C477.956 80.9914 470.126 83.5199 464.254 79.9311C462.052 78.6261 461.236 78.463 460.339 79.197C457.484 81.5624 465.722 85.2327 472.41 84.6617C475.999 84.2539 477.059 83.7645 479.343 81.2361C481.382 79.0339 482.034 77.5658 482.034 75.1189C482.034 70.7145 479.832 68.2677 473.307 65.5761C466.456 62.803 464.906 61.498 464.906 58.8064C464.988 53.5049 470.534 51.4658 476.488 54.5652C479.098 55.8702 479.587 55.8702 479.995 54.8099C480.648 53.097 479.017 51.5474 475.591 50.5686C471.676 49.5083 469.147 49.5899 466.048 50.8949Z" fill="white"/>
<path d="M422.493 63.2113C422.493 77.1585 423.146 80.0132 426.979 83.031C431.221 86.375 440.519 84.8254 444.842 80.0132C447.044 77.5663 447.778 77.8925 447.778 81.155C447.778 83.4388 448.104 84.0097 449.409 84.0097C450.959 84.0097 451.04 83.4388 451.04 67.2894V50.5691H449.001H446.962V61.1722C446.962 70.2257 446.717 72.3463 445.331 75.0379C442.721 80.1763 436.359 82.7863 431.057 80.7472C427.469 79.3607 426.572 75.6904 426.572 62.3957V50.5691H424.532H422.493V63.2113Z" fill="white"/>
<path d="M500.793 51.3033C487.824 55.463 483.012 69.5733 491.169 79.4423C496.796 86.2936 506.258 88.0064 514.903 83.6836C519.797 81.3183 521.265 79.687 519.715 78.1373C519.144 77.5664 517.839 78.0558 515.393 79.687C512.375 81.7261 511.151 81.9708 505.768 81.9708C500.548 81.9708 499.162 81.6445 496.796 80.0133C494.349 78.2189 491.087 72.8358 491.005 70.3073C491.005 69.5733 494.676 69.3286 506.502 69.3286H521.999V66.8817C521.999 61.7433 517.839 55.1367 512.946 52.6083C510.254 51.1402 503.403 50.4061 500.793 51.3033ZM509.031 54.7289C512.619 55.9523 515.393 58.4808 516.779 61.7433C519.063 66.9633 519.308 66.8817 505.116 66.3108C498.02 66.0661 492.147 65.7398 491.984 65.6583C491.169 64.9242 493.289 60.6014 495.573 58.2361C499.569 54.3211 504.137 53.0977 509.031 54.7289Z" fill="white"/>
<path d="M44.0427 85.5594C44.0427 95.4285 44.3689 103.666 44.7768 103.911C45.5924 104.4 58.3977 99.8329 60.1921 98.4463C60.9261 97.8754 61.1708 94.5313 61.0077 84.9885L60.763 72.3463L53.8302 69.981C43.0639 66.3922 44.0427 64.8426 44.0427 85.5594Z" fill="white"/>
</svg>
