<svg width="522" height="114" viewBox="0 0 522 114" fill="none" xmlns="http://www.w3.org/2000/svg">
<g clip-path="url(#clip0_207_3637)">
<path d="M240.077 87.5374V51.8264C240.077 42.1651 235.249 39.4727 227.838 39.4727C224.719 39.5966 221.667 40.4174 218.907 41.8747C216.147 43.3321 213.748 45.389 211.887 47.8948V87.5374H203.466V12.6299H211.887V41.1637C214.272 38.3497 217.228 36.0738 220.558 34.4862C223.888 32.8987 227.517 32.0357 231.206 31.9541C242.549 31.9541 248.501 37.4596 248.501 49.2529V87.5374H240.077Z" fill="white"/>
<path d="M262.187 60.365C262.187 44.64 272.515 31.9468 289.028 31.9468C305.541 31.9468 315.87 44.64 315.87 60.365C315.87 76.09 305.542 88.8885 289.028 88.8885C272.513 88.8885 262.187 76.0867 262.187 60.365ZM307.001 60.365C307.001 49.356 300.599 39.4759 289.031 39.4759C277.464 39.4759 271.062 49.356 271.062 60.365C271.062 71.4794 277.464 81.3594 289.031 81.3594C300.599 81.3594 307.001 71.4794 307.001 60.365Z" fill="white"/>
<path d="M395.028 87.5389V50.7038C395.028 43.8575 392.108 39.4741 385.032 39.4741C382.157 39.6556 379.363 40.5005 376.869 41.9425C374.374 43.3845 372.249 45.3844 370.656 47.7858V87.5389H362.235V50.7038C362.235 43.8575 359.425 39.4741 352.237 39.4741C346.736 39.4741 340.897 43.5161 337.974 47.8959V87.5389H329.552V33.2947H337.977V41.1564C340.074 38.4362 342.737 36.2039 345.782 34.6138C348.826 33.0238 352.18 32.1137 355.61 31.9468C363.81 31.9468 368.528 36.4421 370.1 42.0579C372.114 39.0523 374.813 36.5683 377.975 34.8103C381.138 33.0524 384.672 32.0709 388.288 31.9468C398.175 31.9468 403.451 37.4522 403.451 48.3457V87.5389H395.028Z" fill="white"/>
<path d="M417.126 60.365C417.126 44.64 428.354 31.9468 443.854 31.9468C460.253 31.9468 469.911 44.7485 469.911 61.0356V63.1677H426.108C426.784 73.3875 433.86 81.9246 445.539 81.9246C448.669 81.9379 451.77 81.3286 454.663 80.1322C457.554 78.9364 460.18 77.1772 462.387 74.9578L466.43 80.4559C463.577 83.2234 460.2 85.394 456.497 86.8409C452.795 88.2878 448.841 88.982 444.867 88.8833C428.692 88.8833 417.128 77.3158 417.128 60.3598M443.737 38.9052C432.169 38.9052 426.441 48.6751 425.993 56.8781H461.599C461.487 48.901 456.097 38.9052 443.743 38.9052" fill="white"/>
<path d="M478.875 80.3514L483.145 74.2872C485.437 76.7264 488.204 78.6716 491.274 80.0031C494.345 81.3352 497.652 82.0261 500.998 82.0337C509.307 82.0337 513.915 78.1021 513.915 72.7117C513.915 59.574 480.336 67.6583 480.336 47.5618C480.336 39.0245 487.525 31.9453 500.438 31.9453C504.149 31.806 507.85 32.4321 511.31 33.7847C514.764 35.1372 517.911 37.1872 520.54 39.807L516.61 45.6451C514.57 43.4017 512.069 41.6277 509.274 40.4457C506.484 39.2637 503.47 38.7017 500.438 38.7987C493.025 38.7987 488.418 42.5046 488.418 47.3361C488.418 59.1227 522.001 51.3762 522.001 72.4878C522.001 81.591 514.703 88.8871 500.775 88.8871C491.792 88.8871 484.374 86.0882 478.875 80.3514Z" fill="white"/>
<path d="M22.7833 2.68774H0V91.0395H22.7833V2.68774Z" fill="white"/>
<path d="M111.661 94.6858C113.223 95.4688 114.946 95.8769 116.694 95.8779C121.329 95.8779 124.244 94.9501 125.436 92.3017L126.892 88.8565L101.333 23.95H122.787L137.359 64.4838L151.798 23.95H173.388L144.505 97.0699C139.339 110.581 129.8 113.629 117.483 113.891C114.54 113.853 111.609 113.501 108.741 112.841L111.661 94.6858Z" fill="white"/>
<path d="M74.3874 68.6048L63.4448 87.5401L26.5435 23.95H48.6248L74.3874 68.6048Z" fill="white"/>
<path d="M101.333 23.95H79.9372L65.2153 48.9828L86.7611 48.8376L101.333 23.95Z" fill="white"/>
</g>
<defs>
<clipPath id="clip0_207_3637">
<rect width="522" height="113.891" fill="white"/>
</clipPath>
</defs>
</svg>
