<svg width="522" height="168" viewBox="0 0 522 168" fill="none" xmlns="http://www.w3.org/2000/svg">
<path d="M68.4244 11.8397C42.4114 16.9728 21.4444 33.3288 12.2224 55.6878C8.39444 64.9098 7.00244 72.6528 7.00244 84.2238C7.00244 109.28 18.3124 130.334 39.1924 144.341C52.5904 153.302 66.5104 157.478 83.1274 157.478C102.702 157.478 119.928 152.084 136.458 140.687L142.722 136.424V108.236V80.0478H113.055H83.3014L83.7364 85.7028C84.2584 91.8798 86.1724 95.8818 89.9134 98.6658C92.1754 100.319 93.7414 100.493 107.574 100.754L122.799 101.015L122.538 113.282L122.277 125.462L116.883 128.768C107.748 134.249 98.7004 136.772 86.1724 137.294C73.4704 137.729 67.6414 136.598 57.4624 131.639C52.5904 129.29 49.1974 126.767 44.3254 121.895C32.8414 110.324 28.0564 97.3608 29.0134 80.5698C29.7964 66.0408 34.3204 56.0358 44.7604 45.6828C55.4614 35.0688 67.9024 30.1098 83.5624 30.1098C97.0474 30.1098 109.227 34.0248 118.71 41.2458L122.973 44.5518L130.02 37.5048C136.98 30.5448 137.067 30.4578 135.327 28.8048C134.37 27.8478 130.194 24.9768 126.105 22.3668C118.014 17.3208 106.182 12.8838 96.6124 11.4047C89.0434 10.1867 75.7324 10.3607 68.4244 11.8397Z" fill="white"/>
<path d="M180.959 83.8682V155.73H191.399H201.839V93.0902C201.839 51.7652 201.491 29.0582 200.882 26.1872C199.055 17.4872 194.183 12.9632 186.179 12.3542L180.959 12.0062V83.8682Z" fill="white"/>
<path d="M230.55 12.7893C230.55 13.2243 244.035 45.4143 260.391 84.3903L290.145 155.295L303.804 155.556C316.419 155.73 317.55 155.643 318.333 154.164C319.899 151.206 365.139 42.2823 366.618 37.9323C368.532 32.0163 368.445 24.6213 366.357 21.2283C364.356 17.9223 359.919 14.5293 356.004 13.2243C353.394 12.3543 353.046 12.4413 352.35 14.3553C349.914 20.7933 305.892 128.673 305.022 130.326C304.065 132.153 301.542 126.585 279.531 72.4713L255.171 12.6153L242.904 12.3543C236.118 12.2673 230.55 12.4413 230.55 12.7893Z" fill="white"/>
<path d="M426.039 13.6593C425.082 15.2253 364.53 154.947 364.53 155.556C364.53 155.904 369.924 155.991 376.449 155.73L388.368 155.295L413.25 96.8313C426.909 64.6413 438.48 37.6713 438.915 36.8883C439.611 35.7573 442.83 42.5433 453.792 67.9473L467.799 100.485L446.049 100.746L424.299 100.92L424.908 105.009C425.517 109.881 428.823 115.797 432.216 118.233C436.74 121.365 441.873 122.061 459.447 121.626C470.67 121.365 476.151 121.539 476.586 122.148C476.934 122.67 480.327 130.5 484.242 139.461L491.289 155.817L503.121 155.991C509.733 156.078 515.04 155.991 515.04 155.73C515.04 155.469 501.033 123.279 483.981 84.2163L452.835 13.0503H439.611C432.39 13.0503 426.213 13.3113 426.039 13.6593Z" fill="white"/>
</svg>
