<svg width="522" height="137" viewBox="0 0 522 137" fill="none" xmlns="http://www.w3.org/2000/svg">
<g clip-path="url(#clip0_207_3473)">
<path fill-rule="evenodd" clip-rule="evenodd" d="M515.009 100.248C512.887 100.248 511.062 102.021 510.15 106.158L510.111 106.35C508.301 114.86 506.442 123.59 498.3 123.296C493.134 123.296 491.617 115.909 491.919 114.136L492.831 67.7444C493.134 63.3118 489.792 59.1748 484.931 58.8797H483.411C480.677 58.8797 477.03 59.4704 477.03 60.9477C477.03 61.4277 477.255 61.7829 477.547 62.2458C478.155 63.2093 479.058 64.6397 478.854 68.6308L478.246 96.4066C478.246 110.295 469.13 123.001 461.23 122.706C461.23 122.706 443.607 128.024 453.938 69.5172C454.11 68.6806 454.38 67.781 454.652 66.8697C455.825 62.9532 457.062 58.8236 450.899 58.584C442.237 58.343 441.437 61.0433 440.617 63.8094C440.43 64.4392 440.243 65.0729 439.961 65.6759C438.138 79.2684 436.922 92.8609 436.618 106.749V107.635C434.188 114.727 430.542 121.819 424.465 121.524C420.211 121.524 417.476 118.569 417.78 112.363L418.691 51.7878C429.326 52.0829 439.961 52.0829 456.369 52.0829C461.534 52.0829 463.965 33.1717 457.888 38.7861C444.215 39.0816 431.149 39.0816 418.995 39.0816L419.299 20.4656C419.299 15.7378 415.045 11.6009 408.361 11.6009C405.626 11.6009 401.98 12.1919 401.676 13.6693C401.568 14.1957 401.806 14.5719 402.145 15.1056C402.757 16.0698 403.694 17.5475 403.499 21.3521L403.195 38.7861C392.257 38.4906 384.964 37.8996 384.964 37.8996C379.191 37.8996 382.533 51.1965 388.914 51.1965C393.472 51.4921 398.333 51.7878 402.891 51.7878L401.98 102.908C399.853 111.181 395.903 121.524 388.61 121.228C383.445 121.228 383.445 113.841 383.445 112.068L384.052 75.1314C384.356 65.9711 381.014 55.0378 367.645 55.0378C357.618 54.7427 350.325 63.3118 344.552 74.245V65.3803C344.552 60.6525 340.298 56.5155 333.614 56.5155C330.879 56.5155 328.448 57.6976 328.144 59.7661C328.448 61.8346 328.752 63.9031 328.752 65.9711L328.144 96.4066L327.233 99.0663C325.41 107.635 321.46 120.342 313.256 120.046C308.394 120.046 306.267 115.318 306.571 110.886L307.179 82.2233C307.179 77.4955 302.925 73.3586 296.24 73.3586C293.505 73.3586 290.771 74.5406 290.771 76.6091C291.378 78.6771 291.378 80.7456 291.378 82.8141L291.075 109.408C288.644 115.022 284.998 119.455 279.529 119.455C272.54 119.455 267.982 113.25 268.286 102.908C268.894 74.5406 287.125 65.9711 302.317 65.9711C303.422 65.9711 304.444 66.1306 305.427 66.2838C306.337 66.4257 307.214 66.5623 308.09 66.5623C309.913 66.5623 310.825 65.3803 310.825 62.1297C310.825 57.402 306.875 53.5606 302.317 53.5606H301.71C276.794 53.265 253.094 68.926 252.486 102.021C252.486 103.498 252.486 104.976 252.79 106.453C250.359 112.954 247.017 118.569 241.244 118.569C237.901 118.569 235.166 116.205 234.559 113.25L236.078 21.0566C236.078 12.4874 232.128 8.35049 225.444 8.35049C222.709 8.35049 219.062 8.94147 218.759 10.4189C218.651 10.9453 218.889 11.3216 219.228 11.8552C219.84 12.8194 220.777 14.2971 220.582 18.1017L219.974 52.9698C197.793 55.6291 178.651 68.926 178.043 99.0663V103.203C174.093 111.181 167.408 117.682 156.166 117.387C148.873 117.682 141.885 113.545 138.543 107.045C157.078 96.4066 169.231 85.4734 169.535 72.1765C169.839 60.3569 162.85 52.0829 151.608 51.7878C136.112 51.4921 119.4 66.8575 119.096 91.9745C119.096 96.1114 119.704 100.248 120.92 104.385C110.588 112.363 98.7385 118.864 86.2807 123.592C89.6528 108.599 92.9775 94.2566 96.2924 79.9568C101.34 58.1815 106.365 36.5048 111.5 12.7829C112.525 9.54299 113.604 7.3541 114.373 5.79518C115.427 3.65732 115.897 2.7041 114.842 1.84969C110.588 -1.6962 98.1306 -0.514234 96.3075 8.64598C92.0535 30.5123 85.6729 58.2884 80.5075 79.5635C72.3033 78.6771 63.7957 80.4505 56.8073 84.8826C51.0814 76.132 44.2983 65.4115 37.4069 54.5197C31.4989 45.1819 25.5113 35.7183 20.0415 27.2619C15.4838 20.1701 3.02597 22.5341 0.291326 27.2619C-0.352329 28.3573 0.111843 28.7897 1.27768 29.8758C2.31325 30.8406 3.90245 32.3211 5.76059 35.2402C14.0314 47.3051 21.4836 58.9909 28.8154 70.4876C41.9543 91.0905 54.7061 111.087 71.0881 131.57C73.2151 134.23 76.8613 135.412 80.2036 134.23V134.525L84.4577 132.457L80.5075 134.525C92.0535 132.752 106.638 126.547 125.477 115.022C131.25 125.661 142.796 131.866 154.951 131.57C165.585 132.161 176.22 128.32 183.512 120.637C187.766 128.024 195.97 132.457 204.478 132.161C211.163 132.161 217.847 129.502 222.709 124.774C226.051 129.797 231.824 132.752 237.901 132.752C245.802 132.752 253.094 128.911 257.651 122.706C261.602 129.206 268.894 133.343 276.794 133.343C283.479 133.343 289.859 130.683 294.417 125.661C297.76 130.979 303.533 133.934 309.913 133.934C316.902 133.934 323.587 130.979 328.144 125.661C328.144 132.752 333.614 134.23 337.868 134.23C343.641 134.23 343.641 129.502 343.641 125.956L344.248 96.9979C346.071 81.3369 358.833 68.6308 364.606 68.6308C368.556 68.6308 368.86 73.9494 368.556 79.8592L367.949 115.909C367.645 125.956 374.026 134.525 384.66 134.82C392.257 134.82 399.245 131.275 403.803 125.661C406.537 131.866 412.918 136.002 419.907 135.412C427.807 135.412 435.099 131.866 439.657 125.661C442.696 132.161 449.684 136.298 456.976 136.298C465.788 136.298 472.472 130.684 477.638 122.41C478.55 130.684 485.538 136.594 494.046 136.594C511.667 136.889 517.746 123.001 521.698 110C522 109.408 522 109.113 522 108.522C522 104.681 518.356 100.248 515.009 100.248ZM150.09 65.0837C152.825 65.0837 154.344 67.7434 154.344 72.1755C154.04 83.9952 145.836 89.905 136.721 95.5192C136.721 94.9284 136.644 94.3371 136.568 93.7463C136.493 93.1555 136.417 92.5643 136.417 91.9735C136.113 83.4044 140.063 65.0837 150.09 65.0837ZM208.124 119.747C213.29 119.452 217.847 116.497 219.974 112.064L220.886 63.3084C207.516 65.672 195.059 74.5367 194.755 99.3581C194.451 113.542 201.135 119.747 208.124 119.747Z" fill="white"/>
</g>
<defs>
<clipPath id="clip0_207_3473">
<rect width="522" height="136.598" fill="white"/>
</clipPath>
</defs>
</svg>
