<svg width="522" height="127" viewBox="0 0 522 127" fill="none" xmlns="http://www.w3.org/2000/svg">
<path d="M127.522 115.382H79.8551L72.4261 97.5667H55.0929L47.6635 115.382H0L63.7609 0L127.522 115.382ZM70.4144 71.6672C70.4144 70.117 69.7432 68.7458 68.4032 67.5588C67.0598 66.3693 65.5116 65.7744 63.7609 65.7744C62.0067 65.7744 60.4585 66.3693 59.1185 67.5588C57.7756 68.7458 57.104 70.117 57.104 71.6672C57.104 73.2203 57.7756 74.5921 59.1185 75.7786C60.4585 76.9685 62.0067 77.5606 63.7609 77.5606C65.5116 77.5606 67.0598 76.9685 68.4032 75.7786C69.7432 74.5916 70.4144 73.2203 70.4144 71.6672ZM214.65 80.3031L205.366 115.381H131.701V11.2378H178.126V80.3031H214.65ZM307.503 80.3031L298.218 115.381H224.554V11.2378H270.982V80.3031H307.503ZM408.098 80.3031L397.575 115.381H317.41V11.2378H397.575L408.098 46.3184H363.837C361.979 46.3184 361.155 47.854 361.36 49.3162C361.569 50.5939 362.39 51.9128 363.837 51.9128H390.146V74.7085H363.837C362.188 74.7085 361.36 76.1253 361.36 77.4971C361.36 78.8683 362.188 80.3031 363.837 80.3031H408.098ZM521.999 126.071L467.526 87.9755V115.381H420.789V4.93463L475.575 38.6438V11.2382H522L521.999 126.071Z" fill="white"/>
</svg>
