<svg width="522" height="239" viewBox="0 0 522 239" fill="none" xmlns="http://www.w3.org/2000/svg">
<path d="M79.6079 218.185L104.402 148.369C105.176 146.28 105.574 144.071 105.577 141.844C105.664 139.579 105.302 137.32 104.511 135.196C103.72 133.072 102.517 131.126 100.97 129.47C99.4229 127.814 97.5632 126.481 95.4982 125.547C93.4332 124.613 91.2037 124.098 88.9385 124.031H71.0603C68.6641 124.022 66.2899 124.487 64.0737 125.398C61.8575 126.309 59.8429 127.649 58.1456 129.34C56.4482 131.031 55.1014 133.041 54.1825 135.254C53.2636 137.467 52.7905 139.839 52.7905 142.235C52.764 144.465 53.1626 146.68 53.965 148.76L79.6079 218.185ZM334.927 216.032V130.556H331.077C316.266 130.556 304.26 150.131 299.301 165.986H297.278V132.709C297.278 130.407 296.364 128.2 294.737 126.573C293.109 124.945 290.902 124.031 288.6 124.031C286.299 124.031 284.091 124.945 282.464 126.573C280.836 128.2 279.922 130.407 279.922 132.709V157.112H277.834C268.047 144.389 250.952 129.251 235.161 129.251C231.348 128.906 227.552 130.085 224.606 132.53C221.659 134.976 219.8 138.489 219.436 142.301C219.466 142.539 219.466 142.78 219.436 143.018C219.436 154.763 235.879 159.722 252.779 166.834C280.118 178.71 285.403 193.847 285.403 205.266C285.403 222.361 274.18 233.062 259.304 237.89H317.767C329.185 237.89 334.927 228.625 334.927 215.836V216.032ZM90.4392 0.057918H13.5107C11.7315 0.0578973 9.96978 0.409405 8.32682 1.09225C6.68387 1.77509 5.19201 2.77581 3.93696 4.03693C2.6819 5.29805 1.68838 6.79471 1.01346 8.44094C0.338547 10.0872 -0.00446646 11.8505 0.00412874 13.6297V100.737C0.0213794 104.308 1.452 107.727 3.9831 110.245C6.5142 112.764 9.93978 114.178 13.5107 114.178H56.9665C58.1116 114.187 59.2471 113.969 60.3075 113.537C61.3679 113.104 62.3323 112.466 63.1451 111.66C63.9578 110.853 64.6029 109.894 65.0431 108.836C65.4833 107.779 65.7099 106.645 65.7098 105.5V78.3567H67.7978C78.5639 92.842 96.1159 108.958 112.559 108.958C116.545 109.284 120.498 108.019 123.554 105.439C126.611 102.86 128.522 99.1752 128.871 95.1909C128.903 94.7348 128.903 94.2769 128.871 93.8207C128.871 80.4447 114.908 74.6375 97.6818 67.7211C80.4561 60.8047 63.4261 52.2571 63.4261 33.5306C63.6375 25.752 66.4037 18.2593 71.2978 12.2095C76.1919 6.15969 82.9415 1.88936 90.5044 0.057918H90.4392ZM442.784 0.057918H426.21C422.588 0.0405022 419.105 1.45857 416.525 4.00194C413.945 6.54532 412.477 10.007 412.443 13.6297C412.463 15.503 412.885 17.3501 413.683 19.0454L434.236 61.7182L455.116 19.1759C455.954 17.4458 456.399 15.552 456.421 13.6297C456.386 10.0183 454.927 6.5665 452.361 4.02498C449.796 1.48346 446.33 0.0577542 442.718 0.057918H442.784ZM249.973 114.178C238.554 114.178 232.812 104.978 232.812 92.1242V7.30055H236.662C251.474 7.30055 263.479 26.8752 268.373 42.6655H270.461V8.86653C270.452 7.71286 270.672 6.56888 271.108 5.50055C271.543 4.43221 272.186 3.46064 272.999 2.64182C273.812 1.823 274.778 1.17312 275.843 0.729653C276.908 0.286184 278.051 0.0578859 279.204 0.057918H290.166C293.755 -0.0655168 297.247 1.2386 299.877 3.6846C302.506 6.1306 304.059 9.51906 304.195 13.1077C304.184 14.5934 303.942 16.0683 303.477 17.4794L276.594 92.059C271.636 105.892 264.458 114.178 252.713 114.178H249.973ZM379.362 238.151C367.943 238.151 362.201 228.886 362.201 216.097V130.556H366.051C380.862 130.556 392.868 150.131 397.762 165.986H399.85V132.709C399.867 130.402 400.796 128.194 402.434 126.569C404.071 124.943 406.286 124.031 408.593 124.031H419.555C421.29 123.925 423.029 124.168 424.67 124.743C426.31 125.319 427.819 126.217 429.108 127.384C430.396 128.551 431.439 129.964 432.174 131.539C432.909 133.115 433.321 134.821 433.388 136.559C433.48 138.147 433.281 139.74 432.801 141.257L405.983 215.967C401.024 229.734 393.782 238.086 382.037 238.086L379.362 238.151ZM379.362 238.151C367.943 238.151 362.201 228.886 362.201 216.097V130.556H366.051C380.862 130.556 392.868 150.131 397.762 165.986H399.85V132.709C399.867 130.402 400.796 128.194 402.434 126.569C404.071 124.943 406.286 124.031 408.593 124.031H419.555C421.329 123.97 423.098 124.259 424.76 124.882C426.422 125.505 427.945 126.45 429.241 127.662C430.538 128.874 431.584 130.329 432.317 131.946C433.051 133.562 433.459 135.307 433.518 137.081C433.541 138.527 433.297 139.964 432.801 141.322L405.983 215.967C401.024 229.734 393.782 238.086 382.037 238.086L379.362 238.151ZM357.177 0.057918C362.859 0.370491 368.333 2.29882 372.957 5.61616C377.58 8.93351 381.161 13.502 383.277 18.7844L411.073 70.5268V92.1242C411.073 105.174 405.657 114.178 393.912 114.178C382.167 114.178 373.946 105.827 368.987 92.059L340.212 14.8042C339.515 13.0497 339.076 11.2036 338.907 9.32327C339.038 7.96678 339.436 6.64959 340.078 5.44788C340.721 4.24617 341.595 3.18379 342.651 2.32218C343.707 1.46056 344.923 0.816814 346.229 0.428163C347.535 0.0395125 348.906 -0.0863286 350.261 0.057918H357.177ZM456.747 114.178C445.328 114.178 439.586 104.978 439.586 92.1242V70.3311L465.686 18.8496C471.558 7.95305 480.106 0.057918 490.872 0.057918H506.989C508.913 0.00587503 510.83 0.334715 512.627 1.02554C514.425 1.71637 516.068 2.75557 517.462 4.08342C518.857 5.41128 519.975 7.00161 520.753 8.76305C521.531 10.5245 521.954 12.4223 521.996 14.3474V100.737C521.979 104.308 520.548 107.727 518.017 110.245C515.486 112.764 512.06 114.178 508.489 114.178H456.747ZM132.721 124.031C141.333 124.031 143.813 132.383 143.813 144.389V216.163C143.813 229.212 138.071 238.217 126.652 238.217H99.3783C91.1569 238.217 87.6987 233.714 87.6987 227.973C88.63 220.766 90.4717 213.706 93.1797 206.962L110.927 155.938C115.952 141.844 122.346 124.031 132.46 124.031H132.721ZM189.226 124.031C177.808 124.031 172.066 133.296 172.066 146.085V215.967C172.066 229.017 178.591 238.086 188.313 238.086C189.315 238.095 190.31 237.906 191.239 237.53C192.169 237.154 193.015 236.599 193.73 235.896C194.445 235.194 195.014 234.357 195.406 233.434C195.798 232.511 196.004 231.52 196.012 230.517V202.33H198.1C209.062 215.902 226.418 232.866 242.861 232.866C246.858 233.21 250.828 231.953 253.899 229.372C256.969 226.79 258.89 223.095 259.238 219.099C259.271 218.643 259.271 218.185 259.238 217.728C259.238 204.679 245.275 198.611 228.049 192.02C210.824 185.43 193.794 176.034 193.794 157.438C194.008 149.668 196.777 142.185 201.672 136.146C206.566 130.107 213.314 125.849 220.872 124.031H189.226ZM27.2129 153.915L53.3125 225.297C53.7699 226.286 54.0567 227.345 54.1608 228.429C54.1267 230.939 53.11 233.336 51.329 235.105C49.548 236.873 47.1445 237.874 44.6344 237.89H13.5107C9.96217 237.891 6.55606 236.495 4.02865 234.004C1.50123 231.513 0.0555562 228.128 0.00412874 224.58V137.472C-0.0667267 135.158 0.776774 132.908 2.35207 131.211C3.92736 129.513 6.10772 128.504 8.42125 128.403C16.0554 128.403 20.949 137.081 27.2129 153.915ZM494.787 208.202L468.426 137.081C468.032 136.084 467.832 135.021 467.839 133.949C467.796 132.668 468.009 131.39 468.468 130.193C468.926 128.996 469.62 127.903 470.508 126.978C471.396 126.053 472.46 125.316 473.638 124.81C474.816 124.304 476.084 124.039 477.366 124.031H508.489C512.071 124.031 515.507 125.454 518.04 127.987C520.573 130.52 521.996 133.955 521.996 137.538V224.645C522.067 226.96 521.223 229.209 519.648 230.906C518.073 232.604 515.892 233.613 513.579 233.714C505.945 233.714 501.051 225.232 494.787 208.202ZM295.256 67.4601L311.894 20.2851L329.316 67.4601H295.256ZM425.754 191.433L442.392 144.258L459.814 191.433H425.754ZM454.137 238.151H432.409C430.318 238.257 428.226 237.949 426.254 237.244C424.282 236.54 422.468 235.454 420.917 234.048C419.365 232.642 418.106 230.943 417.212 229.05C416.318 227.156 415.806 225.105 415.705 223.014V222.492C415.69 220.801 415.977 219.122 416.554 217.533L422.491 200.568H463.272L469.797 217.272C470.448 218.935 470.78 220.706 470.775 222.492C470.725 224.614 470.253 226.705 469.386 228.643C468.519 230.58 467.275 232.326 465.726 233.777C464.177 235.229 462.355 236.358 460.365 237.098C458.375 237.837 456.258 238.173 454.137 238.086V238.151ZM323.639 114.178H301.911C297.681 114.392 293.539 112.917 290.395 110.079C287.251 107.241 285.362 103.271 285.142 99.0406V98.5186C285.159 96.831 285.446 95.157 285.99 93.5597L291.993 76.595H332.774L339.299 93.2987C339.928 94.9886 340.238 96.7808 340.212 98.5839C340.11 102.812 338.335 106.828 335.278 109.751C332.22 112.674 328.129 114.266 323.9 114.178H323.639ZM204.429 92.1242V7.30055H200.579C185.768 7.30055 173.697 26.8752 168.803 42.6655H166.78V8.80128C166.592 6.62119 165.592 4.59117 163.979 3.11212C162.367 1.63307 160.258 0.812525 158.07 0.812525C155.882 0.812525 153.773 1.63307 152.16 3.11212C150.547 4.59117 149.548 6.62119 149.359 8.80128V33.2044H147.336C137.484 20.4808 120.454 5.34308 104.402 5.34308C100.589 4.99802 96.7935 6.17714 93.8467 8.6226C90.8999 11.0681 89.0414 14.5809 88.6775 18.3929C88.6775 18.3929 88.6775 18.8496 88.6775 19.1106C88.6775 30.8554 105.12 35.8796 122.02 42.9265C149.359 54.8671 154.644 69.9396 154.644 81.4234C154.644 98.5186 143.487 109.219 128.545 114.048H187.269C198.687 114.178 204.429 104.978 204.429 92.1242Z" fill="white"/>
</svg>
