<svg width="522" height="203" viewBox="0 0 522 203" fill="none" xmlns="http://www.w3.org/2000/svg">
<path d="M123.489 96.9983V111.412H180.753C184.259 111.412 186.986 108.685 186.986 105.179V57.6536C186.986 55.7058 186.207 54.1476 184.649 52.9789L148.031 28.8267C146.083 27.2685 142.967 26.8789 140.63 28.4371L104.012 53.3685C102.453 54.5371 101.674 56.4849 101.674 58.4327V137.512H42.4624V102.452L70.8998 84.5327L93.4938 99.7252V82.1954L74.0162 68.9506C71.6789 67.3924 68.5624 67.3924 66.6147 69.3401L30.3863 93.4924C28.8281 94.661 28.049 96.6088 28.049 98.167V145.303C28.049 148.809 30.7759 151.536 34.2818 151.536H108.686C112.582 151.536 115.698 148.419 115.698 144.524V62.7177L144.136 43.6297L172.573 61.5491V96.6088H123.489V96.9983ZM348.261 164.391C342.807 164.391 339.691 161.274 339.301 155.821H371.634V151.925C371.634 138.291 363.064 130.11 347.871 130.11C334.237 130.11 324.498 138.68 324.498 152.704C324.498 166.339 333.458 175.688 348.261 175.688C361.895 175.688 370.465 169.066 371.634 159.327H356.831C356.052 162.443 352.936 164.391 348.261 164.391ZM347.871 141.018C352.936 141.018 356.442 143.745 356.831 148.419H338.912C339.301 143.745 342.807 141.018 347.871 141.018ZM384.489 130.11V130.889H376.309V144.134H384.489V161.664H376.309V174.519H411.758V161.664H399.292V144.134H411.758V131.279H399.292V130.889C399.292 126.215 401.24 124.267 405.136 124.267H414.485V111.412H407.083C391.891 111.412 384.489 118.034 384.489 130.11ZM478.371 161.664V144.134H492.785V131.279H478.371V118.813L463.568 123.488V131.279H453.051V144.134H463.568V167.118C463.568 172.182 466.295 174.519 470.97 174.519H494.343V161.664H478.371ZM265.676 161.664V149.588C265.676 135.564 255.548 130.11 243.471 130.11C231.395 130.11 221.267 135.954 220.877 147.64H234.901C234.901 143.745 237.628 141.407 243.082 141.407C248.925 141.407 251.262 143.355 251.262 147.64L237.628 149.198C224.383 150.757 219.709 155.042 219.709 162.833C219.709 167.507 222.046 175.688 235.68 175.688C243.082 175.688 247.367 173.74 250.483 171.403V174.909H270.74V162.054H265.676V161.664ZM239.965 164.001C237.239 164.001 234.512 163.222 234.512 160.495C234.512 158.158 236.849 157.768 240.745 156.989L251.262 155.431C250.873 160.495 245.809 164.001 239.965 164.001Z" fill="white"/>
<path d="M197.114 162.833L186.986 130.889H171.793L161.665 162.833L155.822 130.889H140.629L149.199 174.519H172.962L179.584 154.263L185.817 174.519H209.969L218.15 130.889H203.347L197.114 162.833ZM326.445 130.889H308.526L292.165 147.64V118.813C292.165 113.749 289.048 111.022 283.984 111.022H270.739V125.046H277.362V174.519H292.165V156.6L308.526 174.519H326.445L305.41 151.925L326.445 130.889ZM444.48 138.291C444.48 133.616 441.753 130.889 437.078 130.889H420.328V144.134H430.845V161.664H418.769V174.519H456.946V161.664H444.48V138.291ZM436.689 127.384C442.142 127.384 445.648 125.046 445.648 119.982C445.648 114.918 442.142 112.581 436.689 112.581C431.235 112.581 428.119 114.918 428.119 119.982C428.119 125.046 431.235 127.384 436.689 127.384Z" fill="white"/>
</svg>
